<svg xmlns:dc="http://purl.org/dc/elements/1.1/" xmlns:cc="http://creativecommons.org/ns#" xmlns:rdf="http://www.w3.org/1999/02/22-rdf-syntax-ns#" xmlns:svg="http://www.w3.org/2000/svg" xmlns="http://www.w3.org/2000/svg" xmlns:sodipodi="http://sodipodi.sourceforge.net/DTD/sodipodi-0.dtd" xmlns:inkscape="http://www.inkscape.org/namespaces/inkscape" width="20" height="20" version="1.1" inkscape:version="0.91+devel+osxmenu r12911" sodipodi:docname="line.svg" style=""><rect id="backgroundrect" width="100%" height="100%" x="0" y="0" fill="none" stroke="none"/>  <defs id="defs19169"/>  <sodipodi:namedview id="base" pagecolor="#ffffff" bordercolor="#666666" borderopacity="1.0" inkscape:pageopacity="0.0" inkscape:pageshadow="2" inkscape:zoom="16" inkscape:cx="12.898775" inkscape:cy="9.5890152" inkscape:document-units="px" inkscape:current-layer="layer1" showgrid="true" units="px" inkscape:window-width="1280" inkscape:window-height="751" inkscape:window-x="0" inkscape:window-y="23" inkscape:window-maximized="0" inkscape:object-nodes="true">    <inkscape:grid type="xygrid" id="grid19715"/>  </sodipodi:namedview>  <metadata id="metadata19172">    <rdf:RDF>      <cc:Work rdf:about="">        <dc:format>image/svg+xml</dc:format>        <dc:type rdf:resource="http://purl.org/dc/dcmitype/StillImage"/>        <dc:title/>      </cc:Work>    </rdf:RDF>  </metadata>  <g class="currentLayer" style=""><title>Layer 1</title><g inkscape:label="Layer 1" inkscape:groupmode="layer" id="layer1" class="" fill-opacity="1" fill="#4264fb">    <path style="color: rgb(0, 0, 0); display: inline; overflow: visible; visibility: visible; fill-opacity: 1; fill-rule: nonzero; stroke: none; stroke-width: 3; marker: none;" d="m13.5,3.50001738281253 c-1.380712,0 -2.5,1.1193 -2.5,2.5 c0,0.3208000000000001 0.046140000000000014,0.6244000000000001 0.15625000000000003,0.9063 l-3.75,3.75 c-0.28183600000000003,-0.11020000000000002 -0.5854210000000001,-0.15630000000000002 -0.90625,-0.15630000000000002 c-1.380712,0 -2.5,1.1193 -2.5,2.5 c0,1.3807 1.119288,2.5 2.5,2.5 c1.380712,0 2.5,-1.1193 2.5,-2.5 c0,-0.3208000000000001 -0.046140000000000014,-0.6244000000000001 -0.15625000000000003,-0.9062 l3.75,-3.75 c0.28183600000000003,0.11010000000000002 0.5854210000000001,0.15620000000000003 0.90625,0.15620000000000003 c1.380712,0 2.5,-1.1193 2.5,-2.5 c0,-1.3807 -1.119288,-2.5 -2.5,-2.5 z" id="rect6467" inkscape:connector-curvature="0" fill="#4264fb"/>  </g></g></svg>