<svg xmlns:dc="http://purl.org/dc/elements/1.1/" xmlns:cc="http://creativecommons.org/ns#" xmlns:rdf="http://www.w3.org/1999/02/22-rdf-syntax-ns#" xmlns:svg="http://www.w3.org/2000/svg" xmlns="http://www.w3.org/2000/svg" xmlns:sodipodi="http://sodipodi.sourceforge.net/DTD/sodipodi-0.dtd" xmlns:inkscape="http://www.inkscape.org/namespaces/inkscape" width="20" height="20" version="1.1" inkscape:version="0.91+devel+osxmenu r12911" sodipodi:docname="marker.svg"><rect id="backgroundrect" width="100%" height="100%" x="0" y="0" fill="none" stroke="none"/>  <defs id="defs19169"/>  <sodipodi:namedview id="base" pagecolor="#ffffff" bordercolor="#666666" borderopacity="1.0" inkscape:pageopacity="0.0" inkscape:pageshadow="2" inkscape:zoom="16" inkscape:cx="14.164253" inkscape:cy="8.88572" inkscape:document-units="px" inkscape:current-layer="layer1" showgrid="false" units="px" inkscape:window-width="1280" inkscape:window-height="751" inkscape:window-x="208" inkscape:window-y="190" inkscape:window-maximized="0" inkscape:object-nodes="true">    <inkscape:grid type="xygrid" id="grid19715"/>  </sodipodi:namedview>  <metadata id="metadata19172">    <rdf:RDF>      <cc:Work rdf:about="">        <dc:format>image/svg+xml</dc:format>        <dc:type rdf:resource="http://purl.org/dc/dcmitype/StillImage"/>        <dc:title/>      </cc:Work>    </rdf:RDF>  </metadata>  <g class="currentLayer" style=""><title>Layer 1</title><g inkscape:label="Layer 1" inkscape:groupmode="layer" id="layer1" class="selected" fill-opacity="1" fill="#4264fb">    <path style="color: rgb(0, 0, 0); clip-rule: nonzero; display: inline; overflow: visible; visibility: visible; opacity: 1; isolation: auto; mix-blend-mode: normal; color-interpolation: srgb; color-interpolation-filters: linearrgb; fill-opacity: 1; fill-rule: evenodd; stroke: none; stroke-width: 2; stroke-linecap: round; stroke-linejoin: round; stroke-miterlimit: 4; stroke-dasharray: none; stroke-dashoffset: 0; stroke-opacity: 1; marker: none; color-rendering: auto; image-rendering: auto; shape-rendering: auto; text-rendering: auto;" d="m36,8.00001738281253 c0.000006,3.3093 -5.988612,10 -5.988612,10 c0,0 -5.998776,-6.668 -6.011345,-9.9772 c-0.012570000000000003,-3.3092 2.6565760000000003,-6.0039 5.965792,-6.0227 c3.309189,-0.019000000000000003 6.00884,2.6452 6.033992,5.9543 " id="path12561" inkscape:connector-curvature="0" sodipodi:nodetypes="ccssc" fill="#4264fb"/>    <path style="color: rgb(0, 0, 0); clip-rule: nonzero; display: inline; overflow: visible; visibility: visible; opacity: 1; isolation: auto; mix-blend-mode: normal; color-interpolation: srgb; color-interpolation-filters: linearrgb; fill-opacity: 1; fill-rule: evenodd; stroke: none; stroke-width: 2; stroke-linecap: round; stroke-linejoin: round; stroke-miterlimit: 4; stroke-dasharray: none; stroke-dashoffset: 0; stroke-opacity: 1; marker: none; color-rendering: auto; image-rendering: auto; shape-rendering: auto; text-rendering: auto;" d="m34.000115,8.00001738281253 c-0.0000049999999999999996,2.2062 -3.992523,7.0001 -3.992523,7.0001 c0,0 -3.999291,-4.7787 -4.007679,-6.9849 c-0.008400000000000001,-2.2062 1.7710819999999998,-4.0027 3.97731,-4.0153 c2.20621,-0.013000000000000003 4.006037,1.7635 4.022777,3.9697 " id="path12563" inkscape:connector-curvature="0" sodipodi:nodetypes="cccsc" fill="#4264fb"/>    <path style="color: rgb(0, 0, 0); clip-rule: nonzero; display: inline; overflow: visible; visibility: visible; opacity: 1; isolation: auto; mix-blend-mode: normal; color-interpolation: srgb; color-interpolation-filters: linearrgb; fill-opacity: 1; fill-rule: evenodd; stroke: none; stroke-width: 2; stroke-linecap: round; stroke-linejoin: round; stroke-miterlimit: 4; stroke-dasharray: none; stroke-dashoffset: 0; stroke-opacity: 1; marker: none; color-rendering: auto; image-rendering: auto; shape-rendering: auto; text-rendering: auto;" d="M9.9667969,-17.99998261718747 C6.6575809,-17.981182617187528 3.98743,-15.285782617187465 4,-11.976582617187546 c0.012569000000000002,3.3092 6.011719,8.9766 6.011719,8.9766 c0,0 5.988287,-5.6907000000000005 5.988281,-9 l0,-0.04500000000000001 c-0.025150000000000006,-3.3091 -2.724014,-5.9741 -6.0332031,-5.9551 zm0.009770000000000004,2 c2.2062061,-0.013000000000000003 4.0066931,1.7626000000000002 4.0234331,3.9688 l0,0.031000000000000007 c-0.0000049999999999999996,2.2062 -3.992188,6 -3.992188,6 c0,0 -3.999424,-3.7782 -4.007812,-5.9844 c-0.008400000000000001,-2.2062 1.7703345,-4.003 3.9765625,-4.0156 z" id="path12568" inkscape:connector-curvature="0" sodipodi:nodetypes="cscsccccscsc" fill="#4264fb"/>    <path style="opacity: 1; fill-opacity: 1; stroke: none; stroke-width: 2; stroke-linecap: butt; stroke-linejoin: bevel; stroke-miterlimit: 4; stroke-dasharray: none; stroke-dashoffset: 0; stroke-opacity: 1; marker: none;" d="M10,2 C6.686292,2 4,4.686300000000074 4,8 C4,11.31370000000004 10,17 10,17 C10,17 16,11.31370000000004 16,8 C16,4.686300000000074 13.313708,2 10,2 zM10,4 C12.071068,4 13.75,5.678900000000112 13.75,7.75 C13.75,9.205327799999964 11.93111,11.644393000000036 10.830078,13 L9.1699219,13 C8.0688903,11.644393000000036 6.25,9.205327799999964 6.25,7.75 C6.25,5.678900000000112 7.928932,4 10,4 z" id="path17305" fill="#4264fb"/>  </g></g></svg>