<?xml version="1.0" encoding="UTF-8" standalone="no"?>
<!-- This is a Stata 15.1 generated SVG file (http://www.stata.com) -->

<svg version="1.1" width="5.50in" height="4.00in" viewBox="0 0 3960 2880" xmlns="http://www.w3.org/2000/svg" xmlns:xlink="http://www.w3.org/1999/xlink">
	<desc>Stata Graph - Graph</desc>
	<rect x="0" y="0" width="3960" height="2880" style="fill:#EAF2F3;stroke:none"/>
	<rect x="0.00" y="0.00" width="3959.88" height="2880.00" style="fill:#FFFFFF"/>
	<rect x="2.88" y="2.88" width="3954.12" height="2874.24" style="fill:none;stroke:#FFFFFF;stroke-width:5.76"/>
	<rect x="732.23" y="232.16" width="3170.10" height="2469.01" style="fill:#FFFFFF"/>
	<rect x="735.11" y="235.04" width="3164.34" height="2463.25" style="fill:none;stroke:#FFFFFF;stroke-width:5.76"/>
	<defs>
		<path id="path1" d="M795.59 295.52 L795.59 295.52 L998.41 295.52 L998.41 540.31 L795.59 540.31 L795.59 295.52 Z" stroke-linecap="round"/>
	</defs>
	<defs>
		<clipPath id="clipPath1">
			<use xlink:href="#path1"/>
		</clipPath>
	</defs>
	<use xlink:href="#path1" style="stroke:none;fill:#023FA5"/>
	<use xlink:href="#path1" style="fill:none;stroke:#023FA5;stroke-width:8.64" clip-path="url(#clipPath1)"/>
	<defs>
		<path id="path2" d="M998.41 295.52 L998.41 295.52 L1201.37 295.52 L1201.37 540.31 L998.41 540.31 L998.41 295.52 Z" stroke-linecap="round"/>
	</defs>
	<defs>
		<clipPath id="clipPath2">
			<use xlink:href="#path2"/>
		</clipPath>
	</defs>
	<use xlink:href="#path2" style="stroke:none;fill:#4157A8"/>
	<use xlink:href="#path2" style="fill:none;stroke:#4157A8;stroke-width:8.64" clip-path="url(#clipPath2)"/>
	<defs>
		<path id="path3" d="M1201.37 295.52 L1201.37 295.52 L1404.19 295.52 L1404.19 540.31 L1201.37 540.31 L1201.37 295.52 Z" stroke-linecap="round"/>
	</defs>
	<defs>
		<clipPath id="clipPath3">
			<use xlink:href="#path3"/>
		</clipPath>
	</defs>
	<use xlink:href="#path3" style="stroke:none;fill:#6170B1"/>
	<use xlink:href="#path3" style="fill:none;stroke:#6170B1;stroke-width:8.64" clip-path="url(#clipPath3)"/>
	<defs>
		<path id="path4" d="M1404.19 295.52 L1404.19 295.52 L1607.14 295.52 L1607.14 540.31 L1404.19 540.31 L1404.19 295.52 Z" stroke-linecap="round"/>
	</defs>
	<defs>
		<clipPath id="clipPath4">
			<use xlink:href="#path4"/>
		</clipPath>
	</defs>
	<use xlink:href="#path4" style="stroke:none;fill:#7E88BD"/>
	<use xlink:href="#path4" style="fill:none;stroke:#7E88BD;stroke-width:8.64" clip-path="url(#clipPath4)"/>
	<defs>
		<path id="path5" d="M1607.14 295.52 L1607.14 295.52 L1809.97 295.52 L1809.97 540.31 L1607.14 540.31 L1607.14 295.52 Z" stroke-linecap="round"/>
	</defs>
	<defs>
		<clipPath id="clipPath5">
			<use xlink:href="#path5"/>
		</clipPath>
	</defs>
	<use xlink:href="#path5" style="stroke:none;fill:#9AA2C9"/>
	<use xlink:href="#path5" style="fill:none;stroke:#9AA2C9;stroke-width:8.64" clip-path="url(#clipPath5)"/>
	<defs>
		<path id="path6" d="M1809.97 295.52 L1809.97 295.52 L2012.92 295.52 L2012.92 540.31 L1809.97 540.31 L1809.97 295.52 Z" stroke-linecap="round"/>
	</defs>
	<defs>
		<clipPath id="clipPath6">
			<use xlink:href="#path6"/>
		</clipPath>
	</defs>
	<use xlink:href="#path6" style="stroke:none;fill:#B7BBD6"/>
	<use xlink:href="#path6" style="fill:none;stroke:#B7BBD6;stroke-width:8.64" clip-path="url(#clipPath6)"/>
	<defs>
		<path id="path7" d="M2012.92 295.52 L2012.92 295.52 L2215.74 295.52 L2215.74 540.31 L2012.92 540.31 L2012.92 295.52 Z" stroke-linecap="round"/>
	</defs>
	<defs>
		<clipPath id="clipPath7">
			<use xlink:href="#path7"/>
		</clipPath>
	</defs>
	<use xlink:href="#path7" style="stroke:none;fill:#D3D6E4"/>
	<use xlink:href="#path7" style="fill:none;stroke:#D3D6E4;stroke-width:8.64" clip-path="url(#clipPath7)"/>
	<defs>
		<path id="path8" d="M2215.74 295.52 L2215.74 295.52 L2418.69 295.52 L2418.69 540.31 L2215.74 540.31 L2215.74 295.52 Z" stroke-linecap="round"/>
	</defs>
	<defs>
		<clipPath id="clipPath8">
			<use xlink:href="#path8"/>
		</clipPath>
	</defs>
	<use xlink:href="#path8" style="stroke:none;fill:#F1F1F1"/>
	<use xlink:href="#path8" style="fill:none;stroke:#F1F1F1;stroke-width:8.64" clip-path="url(#clipPath8)"/>
	<defs>
		<path id="path9" d="M2418.69 295.52 L2418.69 295.52 L2621.52 295.52 L2621.52 540.31 L2418.69 540.31 L2418.69 295.52 Z" stroke-linecap="round"/>
	</defs>
	<defs>
		<clipPath id="clipPath9">
			<use xlink:href="#path9"/>
		</clipPath>
	</defs>
	<use xlink:href="#path9" style="stroke:none;fill:#E5D2D5"/>
	<use xlink:href="#path9" style="fill:none;stroke:#E5D2D5;stroke-width:8.64" clip-path="url(#clipPath9)"/>
	<defs>
		<path id="path10" d="M2621.52 295.52 L2621.52 295.52 L2824.47 295.52 L2824.47 540.31 L2621.52 540.31 L2621.52 295.52 Z" stroke-linecap="round"/>
	</defs>
	<defs>
		<clipPath id="clipPath10">
			<use xlink:href="#path10"/>
		</clipPath>
	</defs>
	<use xlink:href="#path10" style="stroke:none;fill:#D9B3BA"/>
	<use xlink:href="#path10" style="fill:none;stroke:#D9B3BA;stroke-width:8.64" clip-path="url(#clipPath10)"/>
	<defs>
		<path id="path11" d="M2824.47 295.52 L2824.47 295.52 L3027.30 295.52 L3027.30 540.31 L2824.47 540.31 L2824.47 295.52 Z" stroke-linecap="round"/>
	</defs>
	<defs>
		<clipPath id="clipPath11">
			<use xlink:href="#path11"/>
		</clipPath>
	</defs>
	<use xlink:href="#path11" style="stroke:none;fill:#CC959F"/>
	<use xlink:href="#path11" style="fill:none;stroke:#CC959F;stroke-width:8.64" clip-path="url(#clipPath11)"/>
	<defs>
		<path id="path12" d="M3027.30 295.52 L3027.30 295.52 L3230.25 295.52 L3230.25 540.31 L3027.30 540.31 L3027.30 295.52 Z" stroke-linecap="round"/>
	</defs>
	<defs>
		<clipPath id="clipPath12">
			<use xlink:href="#path12"/>
		</clipPath>
	</defs>
	<use xlink:href="#path12" style="stroke:none;fill:#BE7785"/>
	<use xlink:href="#path12" style="fill:none;stroke:#BE7785;stroke-width:8.64" clip-path="url(#clipPath12)"/>
	<defs>
		<path id="path13" d="M3230.25 295.52 L3230.25 295.52 L3433.07 295.52 L3433.07 540.31 L3230.25 540.31 L3230.25 295.52 Z" stroke-linecap="round"/>
	</defs>
	<defs>
		<clipPath id="clipPath13">
			<use xlink:href="#path13"/>
		</clipPath>
	</defs>
	<use xlink:href="#path13" style="stroke:none;fill:#AF596C"/>
	<use xlink:href="#path13" style="fill:none;stroke:#AF596C;stroke-width:8.64" clip-path="url(#clipPath13)"/>
	<defs>
		<path id="path14" d="M3433.07 295.52 L3433.07 295.52 L3636.02 295.52 L3636.02 540.31 L3433.07 540.31 L3433.07 295.52 Z" stroke-linecap="round"/>
	</defs>
	<defs>
		<clipPath id="clipPath14">
			<use xlink:href="#path14"/>
		</clipPath>
	</defs>
	<use xlink:href="#path14" style="stroke:none;fill:#9F3853"/>
	<use xlink:href="#path14" style="fill:none;stroke:#9F3853;stroke-width:8.64" clip-path="url(#clipPath14)"/>
	<defs>
		<path id="path15" d="M3636.02 295.52 L3636.02 295.52 L3838.85 295.52 L3838.85 540.31 L3636.02 540.31 L3636.02 295.52 Z" stroke-linecap="round"/>
	</defs>
	<defs>
		<clipPath id="clipPath15">
			<use xlink:href="#path15"/>
		</clipPath>
	</defs>
	<use xlink:href="#path15" style="stroke:none;fill:#8E063B"/>
	<use xlink:href="#path15" style="fill:none;stroke:#8E063B;stroke-width:8.64" clip-path="url(#clipPath15)"/>
	<defs>
		<path id="path16" d="M795.59 645.13 L795.59 645.13 L998.41 645.13 L998.41 889.91 L795.59 889.91 L795.59 645.13 Z" stroke-linecap="round"/>
	</defs>
	<defs>
		<clipPath id="clipPath16">
			<use xlink:href="#path16"/>
		</clipPath>
	</defs>
	<use xlink:href="#path16" style="stroke:none;fill:#4A6FE3"/>
	<use xlink:href="#path16" style="fill:none;stroke:#4A6FE3;stroke-width:8.64" clip-path="url(#clipPath16)"/>
	<defs>
		<path id="path17" d="M998.41 645.13 L998.41 645.13 L1201.37 645.13 L1201.37 889.91 L998.41 889.91 L998.41 645.13 Z" stroke-linecap="round"/>
	</defs>
	<defs>
		<clipPath id="clipPath17">
			<use xlink:href="#path17"/>
		</clipPath>
	</defs>
	<use xlink:href="#path17" style="stroke:none;fill:#6881E3"/>
	<use xlink:href="#path17" style="fill:none;stroke:#6881E3;stroke-width:8.64" clip-path="url(#clipPath17)"/>
	<defs>
		<path id="path18" d="M1201.37 645.13 L1201.37 645.13 L1404.19 645.13 L1404.19 889.91 L1201.37 889.91 L1201.37 645.13 Z" stroke-linecap="round"/>
	</defs>
	<defs>
		<clipPath id="clipPath18">
			<use xlink:href="#path18"/>
		</clipPath>
	</defs>
	<use xlink:href="#path18" style="stroke:none;fill:#8294E5"/>
	<use xlink:href="#path18" style="fill:none;stroke:#8294E5;stroke-width:8.64" clip-path="url(#clipPath18)"/>
	<defs>
		<path id="path19" d="M1404.19 645.13 L1404.19 645.13 L1607.14 645.13 L1607.14 889.91 L1404.19 889.91 L1404.19 645.13 Z" stroke-linecap="round"/>
	</defs>
	<defs>
		<clipPath id="clipPath19">
			<use xlink:href="#path19"/>
		</clipPath>
	</defs>
	<use xlink:href="#path19" style="stroke:none;fill:#99A6E7"/>
	<use xlink:href="#path19" style="fill:none;stroke:#99A6E7;stroke-width:8.64" clip-path="url(#clipPath19)"/>
	<defs>
		<path id="path20" d="M1607.14 645.13 L1607.14 645.13 L1809.97 645.13 L1809.97 889.91 L1607.14 889.91 L1607.14 645.13 Z" stroke-linecap="round"/>
	</defs>
	<defs>
		<clipPath id="clipPath20">
			<use xlink:href="#path20"/>
		</clipPath>
	</defs>
	<use xlink:href="#path20" style="stroke:none;fill:#AFB8EA"/>
	<use xlink:href="#path20" style="fill:none;stroke:#AFB8EA;stroke-width:8.64" clip-path="url(#clipPath20)"/>
	<defs>
		<path id="path21" d="M1809.97 645.13 L1809.97 645.13 L2012.92 645.13 L2012.92 889.91 L1809.97 889.91 L1809.97 645.13 Z" stroke-linecap="round"/>
	</defs>
	<defs>
		<clipPath id="clipPath21">
			<use xlink:href="#path21"/>
		</clipPath>
	</defs>
	<use xlink:href="#path21" style="stroke:none;fill:#C5CBED"/>
	<use xlink:href="#path21" style="fill:none;stroke:#C5CBED;stroke-width:8.64" clip-path="url(#clipPath21)"/>
	<defs>
		<path id="path22" d="M2012.92 645.13 L2012.92 645.13 L2215.74 645.13 L2215.74 889.91 L2012.92 889.91 L2012.92 645.13 Z" stroke-linecap="round"/>
	</defs>
	<defs>
		<clipPath id="clipPath22">
			<use xlink:href="#path22"/>
		</clipPath>
	</defs>
	<use xlink:href="#path22" style="stroke:none;fill:#DBDEEF"/>
	<use xlink:href="#path22" style="fill:none;stroke:#DBDEEF;stroke-width:8.64" clip-path="url(#clipPath22)"/>
	<defs>
		<path id="path23" d="M2215.74 645.13 L2215.74 645.13 L2418.69 645.13 L2418.69 889.91 L2215.74 889.91 L2215.74 645.13 Z" stroke-linecap="round"/>
	</defs>
	<defs>
		<clipPath id="clipPath23">
			<use xlink:href="#path23"/>
		</clipPath>
	</defs>
	<use xlink:href="#path23" style="stroke:none;fill:#F1F1F1"/>
	<use xlink:href="#path23" style="fill:none;stroke:#F1F1F1;stroke-width:8.64" clip-path="url(#clipPath23)"/>
	<defs>
		<path id="path24" d="M2418.69 645.13 L2418.69 645.13 L2621.52 645.13 L2621.52 889.91 L2418.69 889.91 L2418.69 645.13 Z" stroke-linecap="round"/>
	</defs>
	<defs>
		<clipPath id="clipPath24">
			<use xlink:href="#path24"/>
		</clipPath>
	</defs>
	<use xlink:href="#path24" style="stroke:none;fill:#F1D8DD"/>
	<use xlink:href="#path24" style="fill:none;stroke:#F1D8DD;stroke-width:8.64" clip-path="url(#clipPath24)"/>
	<defs>
		<path id="path25" d="M2621.52 645.13 L2621.52 645.13 L2824.47 645.13 L2824.47 889.91 L2621.52 889.91 L2621.52 645.13 Z" stroke-linecap="round"/>
	</defs>
	<defs>
		<clipPath id="clipPath25">
			<use xlink:href="#path25"/>
		</clipPath>
	</defs>
	<use xlink:href="#path25" style="stroke:none;fill:#F0C0C9"/>
	<use xlink:href="#path25" style="fill:none;stroke:#F0C0C9;stroke-width:8.64" clip-path="url(#clipPath25)"/>
	<defs>
		<path id="path26" d="M2824.47 645.13 L2824.47 645.13 L3027.30 645.13 L3027.30 889.91 L2824.47 889.91 L2824.47 645.13 Z" stroke-linecap="round"/>
	</defs>
	<defs>
		<clipPath id="clipPath26">
			<use xlink:href="#path26"/>
		</clipPath>
	</defs>
	<use xlink:href="#path26" style="stroke:none;fill:#EDA8B5"/>
	<use xlink:href="#path26" style="fill:none;stroke:#EDA8B5;stroke-width:8.64" clip-path="url(#clipPath26)"/>
	<defs>
		<path id="path27" d="M3027.30 645.13 L3027.30 645.13 L3230.25 645.13 L3230.25 889.91 L3027.30 889.91 L3027.30 645.13 Z" stroke-linecap="round"/>
	</defs>
	<defs>
		<clipPath id="clipPath27">
			<use xlink:href="#path27"/>
		</clipPath>
	</defs>
	<use xlink:href="#path27" style="stroke:none;fill:#E890A2"/>
	<use xlink:href="#path27" style="fill:none;stroke:#E890A2;stroke-width:8.64" clip-path="url(#clipPath27)"/>
	<defs>
		<path id="path28" d="M3230.25 645.13 L3230.25 645.13 L3433.07 645.13 L3433.07 889.91 L3230.25 889.91 L3230.25 645.13 Z" stroke-linecap="round"/>
	</defs>
	<defs>
		<clipPath id="clipPath28">
			<use xlink:href="#path28"/>
		</clipPath>
	</defs>
	<use xlink:href="#path28" style="stroke:none;fill:#E2778F"/>
	<use xlink:href="#path28" style="fill:none;stroke:#E2778F;stroke-width:8.64" clip-path="url(#clipPath28)"/>
	<defs>
		<path id="path29" d="M3433.07 645.13 L3433.07 645.13 L3636.02 645.13 L3636.02 889.91 L3433.07 889.91 L3433.07 645.13 Z" stroke-linecap="round"/>
	</defs>
	<defs>
		<clipPath id="clipPath29">
			<use xlink:href="#path29"/>
		</clipPath>
	</defs>
	<use xlink:href="#path29" style="stroke:none;fill:#DB5D7C"/>
	<use xlink:href="#path29" style="fill:none;stroke:#DB5D7C;stroke-width:8.64" clip-path="url(#clipPath29)"/>
	<defs>
		<path id="path30" d="M3636.02 645.13 L3636.02 645.13 L3838.85 645.13 L3838.85 889.91 L3636.02 889.91 L3636.02 645.13 Z" stroke-linecap="round"/>
	</defs>
	<defs>
		<clipPath id="clipPath30">
			<use xlink:href="#path30"/>
		</clipPath>
	</defs>
	<use xlink:href="#path30" style="stroke:none;fill:#D33F6A"/>
	<use xlink:href="#path30" style="fill:none;stroke:#D33F6A;stroke-width:8.64" clip-path="url(#clipPath30)"/>
	<defs>
		<path id="path31" d="M795.59 994.73 L795.59 994.73 L998.41 994.73 L998.41 1239.52 L795.59 1239.52 L795.59 994.73 Z" stroke-linecap="round"/>
	</defs>
	<defs>
		<clipPath id="clipPath31">
			<use xlink:href="#path31"/>
		</clipPath>
	</defs>
	<use xlink:href="#path31" style="stroke:none;fill:#00CFC0"/>
	<use xlink:href="#path31" style="fill:none;stroke:#00CFC0;stroke-width:8.64" clip-path="url(#clipPath31)"/>
	<defs>
		<path id="path32" d="M998.41 994.73 L998.41 994.73 L1201.37 994.73 L1201.37 1239.52 L998.41 1239.52 L998.41 994.73 Z" stroke-linecap="round"/>
	</defs>
	<defs>
		<clipPath id="clipPath32">
			<use xlink:href="#path32"/>
		</clipPath>
	</defs>
	<use xlink:href="#path32" style="stroke:none;fill:#54D4C7"/>
	<use xlink:href="#path32" style="fill:none;stroke:#54D4C7;stroke-width:8.64" clip-path="url(#clipPath32)"/>
	<defs>
		<path id="path33" d="M1201.37 994.73 L1201.37 994.73 L1404.19 994.73 L1404.19 1239.52 L1201.37 1239.52 L1201.37 994.73 Z" stroke-linecap="round"/>
	</defs>
	<defs>
		<clipPath id="clipPath33">
			<use xlink:href="#path33"/>
		</clipPath>
	</defs>
	<use xlink:href="#path33" style="stroke:none;fill:#79D9CD"/>
	<use xlink:href="#path33" style="fill:none;stroke:#79D9CD;stroke-width:8.64" clip-path="url(#clipPath33)"/>
	<defs>
		<path id="path34" d="M1404.19 994.73 L1404.19 994.73 L1607.14 994.73 L1607.14 1239.52 L1404.19 1239.52 L1404.19 994.73 Z" stroke-linecap="round"/>
	</defs>
	<defs>
		<clipPath id="clipPath34">
			<use xlink:href="#path34"/>
		</clipPath>
	</defs>
	<use xlink:href="#path34" style="stroke:none;fill:#96DDD4"/>
	<use xlink:href="#path34" style="fill:none;stroke:#96DDD4;stroke-width:8.64" clip-path="url(#clipPath34)"/>
	<defs>
		<path id="path35" d="M1607.14 994.73 L1607.14 994.73 L1809.97 994.73 L1809.97 1239.52 L1607.14 1239.52 L1607.14 994.73 Z" stroke-linecap="round"/>
	</defs>
	<defs>
		<clipPath id="clipPath35">
			<use xlink:href="#path35"/>
		</clipPath>
	</defs>
	<use xlink:href="#path35" style="stroke:none;fill:#AFE2DB"/>
	<use xlink:href="#path35" style="fill:none;stroke:#AFE2DB;stroke-width:8.64" clip-path="url(#clipPath35)"/>
	<defs>
		<path id="path36" d="M1809.97 994.73 L1809.97 994.73 L2012.92 994.73 L2012.92 1239.52 L1809.97 1239.52 L1809.97 994.73 Z" stroke-linecap="round"/>
	</defs>
	<defs>
		<clipPath id="clipPath36">
			<use xlink:href="#path36"/>
		</clipPath>
	</defs>
	<use xlink:href="#path36" style="stroke:none;fill:#C6E7E2"/>
	<use xlink:href="#path36" style="fill:none;stroke:#C6E7E2;stroke-width:8.64" clip-path="url(#clipPath36)"/>
	<defs>
		<path id="path37" d="M2012.92 994.73 L2012.92 994.73 L2215.74 994.73 L2215.74 1239.52 L2012.92 1239.52 L2012.92 994.73 Z" stroke-linecap="round"/>
	</defs>
	<defs>
		<clipPath id="clipPath37">
			<use xlink:href="#path37"/>
		</clipPath>
	</defs>
	<use xlink:href="#path37" style="stroke:none;fill:#DCECE9"/>
	<use xlink:href="#path37" style="fill:none;stroke:#DCECE9;stroke-width:8.64" clip-path="url(#clipPath37)"/>
	<defs>
		<path id="path38" d="M2215.74 994.73 L2215.74 994.73 L2418.69 994.73 L2418.69 1239.52 L2215.74 1239.52 L2215.74 994.73 Z" stroke-linecap="round"/>
	</defs>
	<defs>
		<clipPath id="clipPath38">
			<use xlink:href="#path38"/>
		</clipPath>
	</defs>
	<use xlink:href="#path38" style="stroke:none;fill:#F1F1F1"/>
	<use xlink:href="#path38" style="fill:none;stroke:#F1F1F1;stroke-width:8.64" clip-path="url(#clipPath38)"/>
	<defs>
		<path id="path39" d="M2418.69 994.73 L2418.69 994.73 L2621.52 994.73 L2621.52 1239.52 L2418.69 1239.52 L2418.69 994.73 Z" stroke-linecap="round"/>
	</defs>
	<defs>
		<clipPath id="clipPath39">
			<use xlink:href="#path39"/>
		</clipPath>
	</defs>
	<use xlink:href="#path39" style="stroke:none;fill:#F3E5ED"/>
	<use xlink:href="#path39" style="fill:none;stroke:#F3E5ED;stroke-width:8.64" clip-path="url(#clipPath39)"/>
	<defs>
		<path id="path40" d="M2621.52 994.73 L2621.52 994.73 L2824.47 994.73 L2824.47 1239.52 L2621.52 1239.52 L2621.52 994.73 Z" stroke-linecap="round"/>
	</defs>
	<defs>
		<clipPath id="clipPath40">
			<use xlink:href="#path40"/>
		</clipPath>
	</defs>
	<use xlink:href="#path40" style="stroke:none;fill:#F4D9E9"/>
	<use xlink:href="#path40" style="fill:none;stroke:#F4D9E9;stroke-width:8.64" clip-path="url(#clipPath40)"/>
	<defs>
		<path id="path41" d="M2824.47 994.73 L2824.47 994.73 L3027.30 994.73 L3027.30 1239.52 L2824.47 1239.52 L2824.47 994.73 Z" stroke-linecap="round"/>
	</defs>
	<defs>
		<clipPath id="clipPath41">
			<use xlink:href="#path41"/>
		</clipPath>
	</defs>
	<use xlink:href="#path41" style="stroke:none;fill:#F6CDE5"/>
	<use xlink:href="#path41" style="fill:none;stroke:#F6CDE5;stroke-width:8.64" clip-path="url(#clipPath41)"/>
	<defs>
		<path id="path42" d="M3027.30 994.73 L3027.30 994.73 L3230.25 994.73 L3230.25 1239.52 L3027.30 1239.52 L3027.30 994.73 Z" stroke-linecap="round"/>
	</defs>
	<defs>
		<clipPath id="clipPath42">
			<use xlink:href="#path42"/>
		</clipPath>
	</defs>
	<use xlink:href="#path42" style="stroke:none;fill:#F7C1E1"/>
	<use xlink:href="#path42" style="fill:none;stroke:#F7C1E1;stroke-width:8.64" clip-path="url(#clipPath42)"/>
	<defs>
		<path id="path43" d="M3230.25 994.73 L3230.25 994.73 L3433.07 994.73 L3433.07 1239.52 L3230.25 1239.52 L3230.25 994.73 Z" stroke-linecap="round"/>
	</defs>
	<defs>
		<clipPath id="clipPath43">
			<use xlink:href="#path43"/>
		</clipPath>
	</defs>
	<use xlink:href="#path43" style="stroke:none;fill:#F7B5DD"/>
	<use xlink:href="#path43" style="fill:none;stroke:#F7B5DD;stroke-width:8.64" clip-path="url(#clipPath43)"/>
	<defs>
		<path id="path44" d="M3433.07 994.73 L3433.07 994.73 L3636.02 994.73 L3636.02 1239.52 L3433.07 1239.52 L3433.07 994.73 Z" stroke-linecap="round"/>
	</defs>
	<defs>
		<clipPath id="clipPath44">
			<use xlink:href="#path44"/>
		</clipPath>
	</defs>
	<use xlink:href="#path44" style="stroke:none;fill:#F8A8D9"/>
	<use xlink:href="#path44" style="fill:none;stroke:#F8A8D9;stroke-width:8.64" clip-path="url(#clipPath44)"/>
	<defs>
		<path id="path45" d="M3636.02 994.73 L3636.02 994.73 L3838.85 994.73 L3838.85 1239.52 L3636.02 1239.52 L3636.02 994.73 Z" stroke-linecap="round"/>
	</defs>
	<defs>
		<clipPath id="clipPath45">
			<use xlink:href="#path45"/>
		</clipPath>
	</defs>
	<use xlink:href="#path45" style="stroke:none;fill:#F89BD5"/>
	<use xlink:href="#path45" style="fill:none;stroke:#F89BD5;stroke-width:8.64" clip-path="url(#clipPath45)"/>
	<defs>
		<path id="path46" d="M795.59 1344.34 L795.59 1344.34 L998.41 1344.34 L998.41 1589.12 L795.59 1589.12 L795.59 1344.34 Z" stroke-linecap="round"/>
	</defs>
	<defs>
		<clipPath id="clipPath46">
			<use xlink:href="#path46"/>
		</clipPath>
	</defs>
	<use xlink:href="#path46" style="stroke:none;fill:#11C638"/>
	<use xlink:href="#path46" style="fill:none;stroke:#11C638;stroke-width:8.64" clip-path="url(#clipPath46)"/>
	<defs>
		<path id="path47" d="M998.41 1344.34 L998.41 1344.34 L1201.37 1344.34 L1201.37 1589.12 L998.41 1589.12 L998.41 1344.34 Z" stroke-linecap="round"/>
	</defs>
	<defs>
		<clipPath id="clipPath47">
			<use xlink:href="#path47"/>
		</clipPath>
	</defs>
	<use xlink:href="#path47" style="stroke:none;fill:#50CD5E"/>
	<use xlink:href="#path47" style="fill:none;stroke:#50CD5E;stroke-width:8.64" clip-path="url(#clipPath47)"/>
	<defs>
		<path id="path48" d="M1201.37 1344.34 L1201.37 1344.34 L1404.19 1344.34 L1404.19 1589.12 L1201.37 1589.12 L1201.37 1344.34 Z" stroke-linecap="round"/>
	</defs>
	<defs>
		<clipPath id="clipPath48">
			<use xlink:href="#path48"/>
		</clipPath>
	</defs>
	<use xlink:href="#path48" style="stroke:none;fill:#72D37B"/>
	<use xlink:href="#path48" style="fill:none;stroke:#72D37B;stroke-width:8.64" clip-path="url(#clipPath48)"/>
	<defs>
		<path id="path49" d="M1404.19 1344.34 L1404.19 1344.34 L1607.14 1344.34 L1607.14 1589.12 L1404.19 1589.12 L1404.19 1344.34 Z" stroke-linecap="round"/>
	</defs>
	<defs>
		<clipPath id="clipPath49">
			<use xlink:href="#path49"/>
		</clipPath>
	</defs>
	<use xlink:href="#path49" style="stroke:none;fill:#8EDA95"/>
	<use xlink:href="#path49" style="fill:none;stroke:#8EDA95;stroke-width:8.64" clip-path="url(#clipPath49)"/>
	<defs>
		<path id="path50" d="M1607.14 1344.34 L1607.14 1344.34 L1809.97 1344.34 L1809.97 1589.12 L1607.14 1589.12 L1607.14 1344.34 Z" stroke-linecap="round"/>
	</defs>
	<defs>
		<clipPath id="clipPath50">
			<use xlink:href="#path50"/>
		</clipPath>
	</defs>
	<use xlink:href="#path50" style="stroke:none;fill:#A9E0AD"/>
	<use xlink:href="#path50" style="fill:none;stroke:#A9E0AD;stroke-width:8.64" clip-path="url(#clipPath50)"/>
	<defs>
		<path id="path51" d="M1809.97 1344.34 L1809.97 1344.34 L2012.92 1344.34 L2012.92 1589.12 L1809.97 1589.12 L1809.97 1344.34 Z" stroke-linecap="round"/>
	</defs>
	<defs>
		<clipPath id="clipPath51">
			<use xlink:href="#path51"/>
		</clipPath>
	</defs>
	<use xlink:href="#path51" style="stroke:none;fill:#C1E6C4"/>
	<use xlink:href="#path51" style="fill:none;stroke:#C1E6C4;stroke-width:8.64" clip-path="url(#clipPath51)"/>
	<defs>
		<path id="path52" d="M2012.92 1344.34 L2012.92 1344.34 L2215.74 1344.34 L2215.74 1589.12 L2012.92 1589.12 L2012.92 1344.34 Z" stroke-linecap="round"/>
	</defs>
	<defs>
		<clipPath id="clipPath52">
			<use xlink:href="#path52"/>
		</clipPath>
	</defs>
	<use xlink:href="#path52" style="stroke:none;fill:#D9EBDA"/>
	<use xlink:href="#path52" style="fill:none;stroke:#D9EBDA;stroke-width:8.64" clip-path="url(#clipPath52)"/>
	<defs>
		<path id="path53" d="M2215.74 1344.34 L2215.74 1344.34 L2418.69 1344.34 L2418.69 1589.12 L2215.74 1589.12 L2215.74 1344.34 Z" stroke-linecap="round"/>
	</defs>
	<defs>
		<clipPath id="clipPath53">
			<use xlink:href="#path53"/>
		</clipPath>
	</defs>
	<use xlink:href="#path53" style="stroke:none;fill:#F1F1F1"/>
	<use xlink:href="#path53" style="fill:none;stroke:#F1F1F1;stroke-width:8.64" clip-path="url(#clipPath53)"/>
	<defs>
		<path id="path54" d="M2418.69 1344.34 L2418.69 1344.34 L2621.52 1344.34 L2621.52 1589.12 L2418.69 1589.12 L2418.69 1344.34 Z" stroke-linecap="round"/>
	</defs>
	<defs>
		<clipPath id="clipPath54">
			<use xlink:href="#path54"/>
		</clipPath>
	</defs>
	<use xlink:href="#path54" style="stroke:none;fill:#F4E4D9"/>
	<use xlink:href="#path54" style="fill:none;stroke:#F4E4D9;stroke-width:8.64" clip-path="url(#clipPath54)"/>
	<defs>
		<path id="path55" d="M2621.52 1344.34 L2621.52 1344.34 L2824.47 1344.34 L2824.47 1589.12 L2621.52 1589.12 L2621.52 1344.34 Z" stroke-linecap="round"/>
	</defs>
	<defs>
		<clipPath id="clipPath55">
			<use xlink:href="#path55"/>
		</clipPath>
	</defs>
	<use xlink:href="#path55" style="stroke:none;fill:#F5D7C1"/>
	<use xlink:href="#path55" style="fill:none;stroke:#F5D7C1;stroke-width:8.64" clip-path="url(#clipPath55)"/>
	<defs>
		<path id="path56" d="M2824.47 1344.34 L2824.47 1344.34 L3027.30 1344.34 L3027.30 1589.12 L2824.47 1589.12 L2824.47 1344.34 Z" stroke-linecap="round"/>
	</defs>
	<defs>
		<clipPath id="clipPath56">
			<use xlink:href="#path56"/>
		</clipPath>
	</defs>
	<use xlink:href="#path56" style="stroke:none;fill:#F6CAA7"/>
	<use xlink:href="#path56" style="fill:none;stroke:#F6CAA7;stroke-width:8.64" clip-path="url(#clipPath56)"/>
	<defs>
		<path id="path57" d="M3027.30 1344.34 L3027.30 1344.34 L3230.25 1344.34 L3230.25 1589.12 L3027.30 1589.12 L3027.30 1344.34 Z" stroke-linecap="round"/>
	</defs>
	<defs>
		<clipPath id="clipPath57">
			<use xlink:href="#path57"/>
		</clipPath>
	</defs>
	<use xlink:href="#path57" style="stroke:none;fill:#F5BD8D"/>
	<use xlink:href="#path57" style="fill:none;stroke:#F5BD8D;stroke-width:8.64" clip-path="url(#clipPath57)"/>
	<defs>
		<path id="path58" d="M3230.25 1344.34 L3230.25 1344.34 L3433.07 1344.34 L3433.07 1589.12 L3230.25 1589.12 L3230.25 1344.34 Z" stroke-linecap="round"/>
	</defs>
	<defs>
		<clipPath id="clipPath58">
			<use xlink:href="#path58"/>
		</clipPath>
	</defs>
	<use xlink:href="#path58" style="stroke:none;fill:#F4B16F"/>
	<use xlink:href="#path58" style="fill:none;stroke:#F4B16F;stroke-width:8.64" clip-path="url(#clipPath58)"/>
	<defs>
		<path id="path59" d="M3433.07 1344.34 L3433.07 1344.34 L3636.02 1344.34 L3636.02 1589.12 L3433.07 1589.12 L3433.07 1344.34 Z" stroke-linecap="round"/>
	</defs>
	<defs>
		<clipPath id="clipPath59">
			<use xlink:href="#path59"/>
		</clipPath>
	</defs>
	<use xlink:href="#path59" style="stroke:none;fill:#F1A54A"/>
	<use xlink:href="#path59" style="fill:none;stroke:#F1A54A;stroke-width:8.64" clip-path="url(#clipPath59)"/>
	<defs>
		<path id="path60" d="M3636.02 1344.34 L3636.02 1344.34 L3838.85 1344.34 L3838.85 1589.12 L3636.02 1589.12 L3636.02 1344.34 Z" stroke-linecap="round"/>
	</defs>
	<defs>
		<clipPath id="clipPath60">
			<use xlink:href="#path60"/>
		</clipPath>
	</defs>
	<use xlink:href="#path60" style="stroke:none;fill:#ED9900"/>
	<use xlink:href="#path60" style="fill:none;stroke:#ED9900;stroke-width:8.64" clip-path="url(#clipPath60)"/>
	<defs>
		<path id="path61" d="M795.59 1693.94 L795.59 1693.94 L998.41 1693.94 L998.41 1938.73 L795.59 1938.73 L795.59 1693.94 Z" stroke-linecap="round"/>
	</defs>
	<defs>
		<clipPath id="clipPath61">
			<use xlink:href="#path61"/>
		</clipPath>
	</defs>
	<use xlink:href="#path61" style="stroke:none;fill:#724B00"/>
	<use xlink:href="#path61" style="fill:none;stroke:#724B00;stroke-width:8.64" clip-path="url(#clipPath61)"/>
	<defs>
		<path id="path62" d="M998.41 1693.94 L998.41 1693.94 L1201.37 1693.94 L1201.37 1938.73 L998.41 1938.73 L998.41 1693.94 Z" stroke-linecap="round"/>
	</defs>
	<defs>
		<clipPath id="clipPath62">
			<use xlink:href="#path62"/>
		</clipPath>
	</defs>
	<use xlink:href="#path62" style="stroke:none;fill:#856113"/>
	<use xlink:href="#path62" style="fill:none;stroke:#856113;stroke-width:8.64" clip-path="url(#clipPath62)"/>
	<defs>
		<path id="path63" d="M1201.37 1693.94 L1201.37 1693.94 L1404.19 1693.94 L1404.19 1938.73 L1201.37 1938.73 L1201.37 1693.94 Z" stroke-linecap="round"/>
	</defs>
	<defs>
		<clipPath id="clipPath63">
			<use xlink:href="#path63"/>
		</clipPath>
	</defs>
	<use xlink:href="#path63" style="stroke:none;fill:#977747"/>
	<use xlink:href="#path63" style="fill:none;stroke:#977747;stroke-width:8.64" clip-path="url(#clipPath63)"/>
	<defs>
		<path id="path64" d="M1404.19 1693.94 L1404.19 1693.94 L1607.14 1693.94 L1607.14 1938.73 L1404.19 1938.73 L1404.19 1693.94 Z" stroke-linecap="round"/>
	</defs>
	<defs>
		<clipPath id="clipPath64">
			<use xlink:href="#path64"/>
		</clipPath>
	</defs>
	<use xlink:href="#path64" style="stroke:none;fill:#A98E6B"/>
	<use xlink:href="#path64" style="fill:none;stroke:#A98E6B;stroke-width:8.64" clip-path="url(#clipPath64)"/>
	<defs>
		<path id="path65" d="M1607.14 1693.94 L1607.14 1693.94 L1809.97 1693.94 L1809.97 1938.73 L1607.14 1938.73 L1607.14 1693.94 Z" stroke-linecap="round"/>
	</defs>
	<defs>
		<clipPath id="clipPath65">
			<use xlink:href="#path65"/>
		</clipPath>
	</defs>
	<use xlink:href="#path65" style="stroke:none;fill:#BBA68D"/>
	<use xlink:href="#path65" style="fill:none;stroke:#BBA68D;stroke-width:8.64" clip-path="url(#clipPath65)"/>
	<defs>
		<path id="path66" d="M1809.97 1693.94 L1809.97 1693.94 L2012.92 1693.94 L2012.92 1938.73 L1809.97 1938.73 L1809.97 1693.94 Z" stroke-linecap="round"/>
	</defs>
	<defs>
		<clipPath id="clipPath66">
			<use xlink:href="#path66"/>
		</clipPath>
	</defs>
	<use xlink:href="#path66" style="stroke:none;fill:#CDBEAE"/>
	<use xlink:href="#path66" style="fill:none;stroke:#CDBEAE;stroke-width:8.64" clip-path="url(#clipPath66)"/>
	<defs>
		<path id="path67" d="M2012.92 1693.94 L2012.92 1693.94 L2215.74 1693.94 L2215.74 1938.73 L2012.92 1938.73 L2012.92 1693.94 Z" stroke-linecap="round"/>
	</defs>
	<defs>
		<clipPath id="clipPath67">
			<use xlink:href="#path67"/>
		</clipPath>
	</defs>
	<use xlink:href="#path67" style="stroke:none;fill:#DFD7CF"/>
	<use xlink:href="#path67" style="fill:none;stroke:#DFD7CF;stroke-width:8.64" clip-path="url(#clipPath67)"/>
	<defs>
		<path id="path68" d="M2215.74 1693.94 L2215.74 1693.94 L2418.69 1693.94 L2418.69 1938.73 L2215.74 1938.73 L2215.74 1693.94 Z" stroke-linecap="round"/>
	</defs>
	<defs>
		<clipPath id="clipPath68">
			<use xlink:href="#path68"/>
		</clipPath>
	</defs>
	<use xlink:href="#path68" style="stroke:none;fill:#F1F1F1"/>
	<use xlink:href="#path68" style="fill:none;stroke:#F1F1F1;stroke-width:8.64" clip-path="url(#clipPath68)"/>
	<defs>
		<path id="path69" d="M2418.69 1693.94 L2418.69 1693.94 L2621.52 1693.94 L2621.52 1938.73 L2418.69 1938.73 L2418.69 1693.94 Z" stroke-linecap="round"/>
	</defs>
	<defs>
		<clipPath id="clipPath69">
			<use xlink:href="#path69"/>
		</clipPath>
	</defs>
	<use xlink:href="#path69" style="stroke:none;fill:#CDDCD6"/>
	<use xlink:href="#path69" style="fill:none;stroke:#CDDCD6;stroke-width:8.64" clip-path="url(#clipPath69)"/>
	<defs>
		<path id="path70" d="M2621.52 1693.94 L2621.52 1693.94 L2824.47 1693.94 L2824.47 1938.73 L2621.52 1938.73 L2621.52 1693.94 Z" stroke-linecap="round"/>
	</defs>
	<defs>
		<clipPath id="clipPath70">
			<use xlink:href="#path70"/>
		</clipPath>
	</defs>
	<use xlink:href="#path70" style="stroke:none;fill:#A8C7BB"/>
	<use xlink:href="#path70" style="fill:none;stroke:#A8C7BB;stroke-width:8.64" clip-path="url(#clipPath70)"/>
	<defs>
		<path id="path71" d="M2824.47 1693.94 L2824.47 1693.94 L3027.30 1693.94 L3027.30 1938.73 L2824.47 1938.73 L2824.47 1693.94 Z" stroke-linecap="round"/>
	</defs>
	<defs>
		<clipPath id="clipPath71">
			<use xlink:href="#path71"/>
		</clipPath>
	</defs>
	<use xlink:href="#path71" style="stroke:none;fill:#83B3A2"/>
	<use xlink:href="#path71" style="fill:none;stroke:#83B3A2;stroke-width:8.64" clip-path="url(#clipPath71)"/>
	<defs>
		<path id="path72" d="M3027.30 1693.94 L3027.30 1693.94 L3230.25 1693.94 L3230.25 1938.73 L3027.30 1938.73 L3027.30 1693.94 Z" stroke-linecap="round"/>
	</defs>
	<defs>
		<clipPath id="clipPath72">
			<use xlink:href="#path72"/>
		</clipPath>
	</defs>
	<use xlink:href="#path72" style="stroke:none;fill:#5AA088"/>
	<use xlink:href="#path72" style="fill:none;stroke:#5AA088;stroke-width:8.64" clip-path="url(#clipPath72)"/>
	<defs>
		<path id="path73" d="M3230.25 1693.94 L3230.25 1693.94 L3433.07 1693.94 L3433.07 1938.73 L3230.25 1938.73 L3230.25 1693.94 Z" stroke-linecap="round"/>
	</defs>
	<defs>
		<clipPath id="clipPath73">
			<use xlink:href="#path73"/>
		</clipPath>
	</defs>
	<use xlink:href="#path73" style="stroke:none;fill:#1F8C70"/>
	<use xlink:href="#path73" style="fill:none;stroke:#1F8C70;stroke-width:8.64" clip-path="url(#clipPath73)"/>
	<defs>
		<path id="path74" d="M3433.07 1693.94 L3433.07 1693.94 L3636.02 1693.94 L3636.02 1938.73 L3433.07 1938.73 L3433.07 1693.94 Z" stroke-linecap="round"/>
	</defs>
	<defs>
		<clipPath id="clipPath74">
			<use xlink:href="#path74"/>
		</clipPath>
	</defs>
	<use xlink:href="#path74" style="stroke:none;fill:#007957"/>
	<use xlink:href="#path74" style="fill:none;stroke:#007957;stroke-width:8.64" clip-path="url(#clipPath74)"/>
	<defs>
		<path id="path75" d="M3636.02 1693.94 L3636.02 1693.94 L3838.85 1693.94 L3838.85 1938.73 L3636.02 1938.73 L3636.02 1693.94 Z" stroke-linecap="round"/>
	</defs>
	<defs>
		<clipPath id="clipPath75">
			<use xlink:href="#path75"/>
		</clipPath>
	</defs>
	<use xlink:href="#path75" style="stroke:none;fill:#00673F"/>
	<use xlink:href="#path75" style="fill:none;stroke:#00673F;stroke-width:8.64" clip-path="url(#clipPath75)"/>
	<defs>
		<path id="path76" d="M795.59 2043.55 L795.59 2043.55 L998.41 2043.55 L998.41 2288.33 L795.59 2288.33 L795.59 2043.55 Z" stroke-linecap="round"/>
	</defs>
	<defs>
		<clipPath id="clipPath76">
			<use xlink:href="#path76"/>
		</clipPath>
	</defs>
	<use xlink:href="#path76" style="stroke:none;fill:#A7006D"/>
	<use xlink:href="#path76" style="fill:none;stroke:#A7006D;stroke-width:8.64" clip-path="url(#clipPath76)"/>
	<defs>
		<path id="path77" d="M998.41 2043.55 L998.41 2043.55 L1201.37 2043.55 L1201.37 2288.33 L998.41 2288.33 L998.41 2043.55 Z" stroke-linecap="round"/>
	</defs>
	<defs>
		<clipPath id="clipPath77">
			<use xlink:href="#path77"/>
		</clipPath>
	</defs>
	<use xlink:href="#path77" style="stroke:none;fill:#B3347D"/>
	<use xlink:href="#path77" style="fill:none;stroke:#B3347D;stroke-width:8.64" clip-path="url(#clipPath77)"/>
	<defs>
		<path id="path78" d="M1201.37 2043.55 L1201.37 2043.55 L1404.19 2043.55 L1404.19 2288.33 L1201.37 2288.33 L1201.37 2043.55 Z" stroke-linecap="round"/>
	</defs>
	<defs>
		<clipPath id="clipPath78">
			<use xlink:href="#path78"/>
		</clipPath>
	</defs>
	<use xlink:href="#path78" style="stroke:none;fill:#BF598F"/>
	<use xlink:href="#path78" style="fill:none;stroke:#BF598F;stroke-width:8.64" clip-path="url(#clipPath78)"/>
	<defs>
		<path id="path79" d="M1404.19 2043.55 L1404.19 2043.55 L1607.14 2043.55 L1607.14 2288.33 L1404.19 2288.33 L1404.19 2043.55 Z" stroke-linecap="round"/>
	</defs>
	<defs>
		<clipPath id="clipPath79">
			<use xlink:href="#path79"/>
		</clipPath>
	</defs>
	<use xlink:href="#path79" style="stroke:none;fill:#CB79A1"/>
	<use xlink:href="#path79" style="fill:none;stroke:#CB79A1;stroke-width:8.64" clip-path="url(#clipPath79)"/>
	<defs>
		<path id="path80" d="M1607.14 2043.55 L1607.14 2043.55 L1809.97 2043.55 L1809.97 2288.33 L1607.14 2288.33 L1607.14 2043.55 Z" stroke-linecap="round"/>
	</defs>
	<defs>
		<clipPath id="clipPath80">
			<use xlink:href="#path80"/>
		</clipPath>
	</defs>
	<use xlink:href="#path80" style="stroke:none;fill:#D597B4"/>
	<use xlink:href="#path80" style="fill:none;stroke:#D597B4;stroke-width:8.64" clip-path="url(#clipPath80)"/>
	<defs>
		<path id="path81" d="M1809.97 2043.55 L1809.97 2043.55 L2012.92 2043.55 L2012.92 2288.33 L1809.97 2288.33 L1809.97 2043.55 Z" stroke-linecap="round"/>
	</defs>
	<defs>
		<clipPath id="clipPath81">
			<use xlink:href="#path81"/>
		</clipPath>
	</defs>
	<use xlink:href="#path81" style="stroke:none;fill:#DFB5C8"/>
	<use xlink:href="#path81" style="fill:none;stroke:#DFB5C8;stroke-width:8.64" clip-path="url(#clipPath81)"/>
	<defs>
		<path id="path82" d="M2012.92 2043.55 L2012.92 2043.55 L2215.74 2043.55 L2215.74 2288.33 L2012.92 2288.33 L2012.92 2043.55 Z" stroke-linecap="round"/>
	</defs>
	<defs>
		<clipPath id="clipPath82">
			<use xlink:href="#path82"/>
		</clipPath>
	</defs>
	<use xlink:href="#path82" style="stroke:none;fill:#E9D3DC"/>
	<use xlink:href="#path82" style="fill:none;stroke:#E9D3DC;stroke-width:8.64" clip-path="url(#clipPath82)"/>
	<defs>
		<path id="path83" d="M2215.74 2043.55 L2215.74 2043.55 L2418.69 2043.55 L2418.69 2288.33 L2215.74 2288.33 L2215.74 2043.55 Z" stroke-linecap="round"/>
	</defs>
	<defs>
		<clipPath id="clipPath83">
			<use xlink:href="#path83"/>
		</clipPath>
	</defs>
	<use xlink:href="#path83" style="stroke:none;fill:#F1F1F1"/>
	<use xlink:href="#path83" style="fill:none;stroke:#F1F1F1;stroke-width:8.64" clip-path="url(#clipPath83)"/>
	<defs>
		<path id="path84" d="M2418.69 2043.55 L2418.69 2043.55 L2621.52 2043.55 L2621.52 2288.33 L2418.69 2288.33 L2418.69 2043.55 Z" stroke-linecap="round"/>
	</defs>
	<defs>
		<clipPath id="clipPath84">
			<use xlink:href="#path84"/>
		</clipPath>
	</defs>
	<use xlink:href="#path84" style="stroke:none;fill:#CDDDCD"/>
	<use xlink:href="#path84" style="fill:none;stroke:#CDDDCD;stroke-width:8.64" clip-path="url(#clipPath84)"/>
	<defs>
		<path id="path85" d="M2621.52 2043.55 L2621.52 2043.55 L2824.47 2043.55 L2824.47 2288.33 L2621.52 2288.33 L2621.52 2043.55 Z" stroke-linecap="round"/>
	</defs>
	<defs>
		<clipPath id="clipPath85">
			<use xlink:href="#path85"/>
		</clipPath>
	</defs>
	<use xlink:href="#path85" style="stroke:none;fill:#A9C9AA"/>
	<use xlink:href="#path85" style="fill:none;stroke:#A9C9AA;stroke-width:8.64" clip-path="url(#clipPath85)"/>
	<defs>
		<path id="path86" d="M2824.47 2043.55 L2824.47 2043.55 L3027.30 2043.55 L3027.30 2288.33 L2824.47 2288.33 L2824.47 2043.55 Z" stroke-linecap="round"/>
	</defs>
	<defs>
		<clipPath id="clipPath86">
			<use xlink:href="#path86"/>
		</clipPath>
	</defs>
	<use xlink:href="#path86" style="stroke:none;fill:#85B586"/>
	<use xlink:href="#path86" style="fill:none;stroke:#85B586;stroke-width:8.64" clip-path="url(#clipPath86)"/>
	<defs>
		<path id="path87" d="M3027.30 2043.55 L3027.30 2043.55 L3230.25 2043.55 L3230.25 2288.33 L3027.30 2288.33 L3027.30 2043.55 Z" stroke-linecap="round"/>
	</defs>
	<defs>
		<clipPath id="clipPath87">
			<use xlink:href="#path87"/>
		</clipPath>
	</defs>
	<use xlink:href="#path87" style="stroke:none;fill:#60A161"/>
	<use xlink:href="#path87" style="fill:none;stroke:#60A161;stroke-width:8.64" clip-path="url(#clipPath87)"/>
	<defs>
		<path id="path88" d="M3230.25 2043.55 L3230.25 2043.55 L3433.07 2043.55 L3433.07 2288.33 L3230.25 2288.33 L3230.25 2043.55 Z" stroke-linecap="round"/>
	</defs>
	<defs>
		<clipPath id="clipPath88">
			<use xlink:href="#path88"/>
		</clipPath>
	</defs>
	<use xlink:href="#path88" style="stroke:none;fill:#348E35"/>
	<use xlink:href="#path88" style="fill:none;stroke:#348E35;stroke-width:8.64" clip-path="url(#clipPath88)"/>
	<defs>
		<path id="path89" d="M3433.07 2043.55 L3433.07 2043.55 L3636.02 2043.55 L3636.02 2288.33 L3433.07 2288.33 L3433.07 2043.55 Z" stroke-linecap="round"/>
	</defs>
	<defs>
		<clipPath id="clipPath89">
			<use xlink:href="#path89"/>
		</clipPath>
	</defs>
	<use xlink:href="#path89" style="stroke:none;fill:#007A00"/>
	<use xlink:href="#path89" style="fill:none;stroke:#007A00;stroke-width:8.64" clip-path="url(#clipPath89)"/>
	<defs>
		<path id="path90" d="M3636.02 2043.55 L3636.02 2043.55 L3838.85 2043.55 L3838.85 2288.33 L3636.02 2288.33 L3636.02 2043.55 Z" stroke-linecap="round"/>
	</defs>
	<defs>
		<clipPath id="clipPath90">
			<use xlink:href="#path90"/>
		</clipPath>
	</defs>
	<use xlink:href="#path90" style="stroke:none;fill:#006700"/>
	<use xlink:href="#path90" style="fill:none;stroke:#006700;stroke-width:8.64" clip-path="url(#clipPath90)"/>
	<defs>
		<path id="path91" d="M795.59 2393.15 L795.59 2393.15 L998.41 2393.15 L998.41 2637.94 L795.59 2637.94 L795.59 2393.15 Z" stroke-linecap="round"/>
	</defs>
	<defs>
		<clipPath id="clipPath91">
			<use xlink:href="#path91"/>
		</clipPath>
	</defs>
	<use xlink:href="#path91" style="stroke:none;fill:#74207F"/>
	<use xlink:href="#path91" style="fill:none;stroke:#74207F;stroke-width:8.64" clip-path="url(#clipPath91)"/>
	<defs>
		<path id="path92" d="M998.41 2393.15 L998.41 2393.15 L1201.37 2393.15 L1201.37 2637.94 L998.41 2637.94 L998.41 2393.15 Z" stroke-linecap="round"/>
	</defs>
	<defs>
		<clipPath id="clipPath92">
			<use xlink:href="#path92"/>
		</clipPath>
	</defs>
	<use xlink:href="#path92" style="stroke:none;fill:#81458B"/>
	<use xlink:href="#path92" style="fill:none;stroke:#81458B;stroke-width:8.64" clip-path="url(#clipPath92)"/>
	<defs>
		<path id="path93" d="M1201.37 2393.15 L1201.37 2393.15 L1404.19 2393.15 L1404.19 2637.94 L1201.37 2637.94 L1201.37 2393.15 Z" stroke-linecap="round"/>
	</defs>
	<defs>
		<clipPath id="clipPath93">
			<use xlink:href="#path93"/>
		</clipPath>
	</defs>
	<use xlink:href="#path93" style="stroke:none;fill:#91639A"/>
	<use xlink:href="#path93" style="fill:none;stroke:#91639A;stroke-width:8.64" clip-path="url(#clipPath93)"/>
	<defs>
		<path id="path94" d="M1404.19 2393.15 L1404.19 2393.15 L1607.14 2393.15 L1607.14 2637.94 L1404.19 2637.94 L1404.19 2393.15 Z" stroke-linecap="round"/>
	</defs>
	<defs>
		<clipPath id="clipPath94">
			<use xlink:href="#path94"/>
		</clipPath>
	</defs>
	<use xlink:href="#path94" style="stroke:none;fill:#A37FAA"/>
	<use xlink:href="#path94" style="fill:none;stroke:#A37FAA;stroke-width:8.64" clip-path="url(#clipPath94)"/>
	<defs>
		<path id="path95" d="M1607.14 2393.15 L1607.14 2393.15 L1809.97 2393.15 L1809.97 2637.94 L1607.14 2637.94 L1607.14 2393.15 Z" stroke-linecap="round"/>
	</defs>
	<defs>
		<clipPath id="clipPath95">
			<use xlink:href="#path95"/>
		</clipPath>
	</defs>
	<use xlink:href="#path95" style="stroke:none;fill:#B59BBB"/>
	<use xlink:href="#path95" style="fill:none;stroke:#B59BBB;stroke-width:8.64" clip-path="url(#clipPath95)"/>
	<defs>
		<path id="path96" d="M1809.97 2393.15 L1809.97 2393.15 L2012.92 2393.15 L2012.92 2637.94 L1809.97 2637.94 L1809.97 2393.15 Z" stroke-linecap="round"/>
	</defs>
	<defs>
		<clipPath id="clipPath96">
			<use xlink:href="#path96"/>
		</clipPath>
	</defs>
	<use xlink:href="#path96" style="stroke:none;fill:#C8B7CD"/>
	<use xlink:href="#path96" style="fill:none;stroke:#C8B7CD;stroke-width:8.64" clip-path="url(#clipPath96)"/>
	<defs>
		<path id="path97" d="M2012.92 2393.15 L2012.92 2393.15 L2215.74 2393.15 L2215.74 2637.94 L2012.92 2637.94 L2012.92 2393.15 Z" stroke-linecap="round"/>
	</defs>
	<defs>
		<clipPath id="clipPath97">
			<use xlink:href="#path97"/>
		</clipPath>
	</defs>
	<use xlink:href="#path97" style="stroke:none;fill:#DCD4DE"/>
	<use xlink:href="#path97" style="fill:none;stroke:#DCD4DE;stroke-width:8.64" clip-path="url(#clipPath97)"/>
	<defs>
		<path id="path98" d="M2215.74 2393.15 L2215.74 2393.15 L2418.69 2393.15 L2418.69 2637.94 L2215.74 2637.94 L2215.74 2393.15 Z" stroke-linecap="round"/>
	</defs>
	<defs>
		<clipPath id="clipPath98">
			<use xlink:href="#path98"/>
		</clipPath>
	</defs>
	<use xlink:href="#path98" style="stroke:none;fill:#F1F1F1"/>
	<use xlink:href="#path98" style="fill:none;stroke:#F1F1F1;stroke-width:8.64" clip-path="url(#clipPath98)"/>
	<defs>
		<path id="path99" d="M2418.69 2393.15 L2418.69 2393.15 L2621.52 2393.15 L2621.52 2637.94 L2418.69 2637.94 L2418.69 2393.15 Z" stroke-linecap="round"/>
	</defs>
	<defs>
		<clipPath id="clipPath99">
			<use xlink:href="#path99"/>
		</clipPath>
	</defs>
	<use xlink:href="#path99" style="stroke:none;fill:#CFD9CF"/>
	<use xlink:href="#path99" style="fill:none;stroke:#CFD9CF;stroke-width:8.64" clip-path="url(#clipPath99)"/>
	<defs>
		<path id="path100" d="M2621.52 2393.15 L2621.52 2393.15 L2824.47 2393.15 L2824.47 2637.94 L2621.52 2637.94 L2621.52 2393.15 Z" stroke-linecap="round"/>
	</defs>
	<defs>
		<clipPath id="clipPath100">
			<use xlink:href="#path100"/>
		</clipPath>
	</defs>
	<use xlink:href="#path100" style="stroke:none;fill:#ADC2AE"/>
	<use xlink:href="#path100" style="fill:none;stroke:#ADC2AE;stroke-width:8.64" clip-path="url(#clipPath100)"/>
	<defs>
		<path id="path101" d="M2824.47 2393.15 L2824.47 2393.15 L3027.30 2393.15 L3027.30 2637.94 L2824.47 2637.94 L2824.47 2393.15 Z" stroke-linecap="round"/>
	</defs>
	<defs>
		<clipPath id="clipPath101">
			<use xlink:href="#path101"/>
		</clipPath>
	</defs>
	<use xlink:href="#path101" style="stroke:none;fill:#8CAC8D"/>
	<use xlink:href="#path101" style="fill:none;stroke:#8CAC8D;stroke-width:8.64" clip-path="url(#clipPath101)"/>
	<defs>
		<path id="path102" d="M3027.30 2393.15 L3027.30 2393.15 L3230.25 2393.15 L3230.25 2637.94 L3027.30 2637.94 L3027.30 2393.15 Z" stroke-linecap="round"/>
	</defs>
	<defs>
		<clipPath id="clipPath102">
			<use xlink:href="#path102"/>
		</clipPath>
	</defs>
	<use xlink:href="#path102" style="stroke:none;fill:#6B956B"/>
	<use xlink:href="#path102" style="fill:none;stroke:#6B956B;stroke-width:8.64" clip-path="url(#clipPath102)"/>
	<defs>
		<path id="path103" d="M3230.25 2393.15 L3230.25 2393.15 L3433.07 2393.15 L3433.07 2637.94 L3230.25 2637.94 L3230.25 2393.15 Z" stroke-linecap="round"/>
	</defs>
	<defs>
		<clipPath id="clipPath103">
			<use xlink:href="#path103"/>
		</clipPath>
	</defs>
	<use xlink:href="#path103" style="stroke:none;fill:#498049"/>
	<use xlink:href="#path103" style="fill:none;stroke:#498049;stroke-width:8.64" clip-path="url(#clipPath103)"/>
	<defs>
		<path id="path104" d="M3433.07 2393.15 L3433.07 2393.15 L3636.02 2393.15 L3636.02 2637.94 L3433.07 2637.94 L3433.07 2393.15 Z" stroke-linecap="round"/>
	</defs>
	<defs>
		<clipPath id="clipPath104">
			<use xlink:href="#path104"/>
		</clipPath>
	</defs>
	<use xlink:href="#path104" style="stroke:none;fill:#1F6B20"/>
	<use xlink:href="#path104" style="fill:none;stroke:#1F6B20;stroke-width:8.64" clip-path="url(#clipPath104)"/>
	<defs>
		<path id="path105" d="M3636.02 2393.15 L3636.02 2393.15 L3838.85 2393.15 L3838.85 2637.94 L3636.02 2637.94 L3636.02 2393.15 Z" stroke-linecap="round"/>
	</defs>
	<defs>
		<clipPath id="clipPath105">
			<use xlink:href="#path105"/>
		</clipPath>
	</defs>
	<use xlink:href="#path105" style="stroke:none;fill:#005600"/>
	<use xlink:href="#path105" style="fill:none;stroke:#005600;stroke-width:8.64" clip-path="url(#clipPath105)"/>
	<text x="712.18" y="452.95" style="font-family:'Helvetica';font-size:99.99px;fill:#000000" text-anchor="end">bluered</text>
	<text x="712.18" y="802.55" style="font-family:'Helvetica';font-size:99.99px;fill:#000000" text-anchor="end">bluered2</text>
	<text x="712.18" y="1152.15" style="font-family:'Helvetica';font-size:99.99px;fill:#000000" text-anchor="end">bluered3</text>
	<text x="712.18" y="1501.76" style="font-family:'Helvetica';font-size:99.99px;fill:#000000" text-anchor="end">greenorange</text>
	<text x="712.18" y="1851.36" style="font-family:'Helvetica';font-size:99.99px;fill:#000000" text-anchor="end">browngreen</text>
	<text x="712.18" y="2200.97" style="font-family:'Helvetica';font-size:99.99px;fill:#000000" text-anchor="end">pinkgreen</text>
	<text x="712.18" y="2550.57" style="font-family:'Helvetica';font-size:99.99px;fill:#000000" text-anchor="end">purplegreen</text>
	<text x="897.06" y="2791.16" style="font-family:'Helvetica';font-size:99.99px;fill:#000000" text-anchor="middle">1</text>
	<text x="1099.89" y="2791.16" style="font-family:'Helvetica';font-size:99.99px;fill:#000000" text-anchor="middle">2</text>
	<text x="1302.84" y="2791.16" style="font-family:'Helvetica';font-size:99.99px;fill:#000000" text-anchor="middle">3</text>
	<text x="1505.67" y="2791.16" style="font-family:'Helvetica';font-size:99.99px;fill:#000000" text-anchor="middle">4</text>
	<text x="1708.62" y="2791.16" style="font-family:'Helvetica';font-size:99.99px;fill:#000000" text-anchor="middle">5</text>
	<text x="1911.44" y="2791.16" style="font-family:'Helvetica';font-size:99.99px;fill:#000000" text-anchor="middle">6</text>
	<text x="2114.39" y="2791.16" style="font-family:'Helvetica';font-size:99.99px;fill:#000000" text-anchor="middle">7</text>
	<text x="2317.22" y="2791.16" style="font-family:'Helvetica';font-size:99.99px;fill:#000000" text-anchor="middle">8</text>
	<text x="2520.17" y="2791.16" style="font-family:'Helvetica';font-size:99.99px;fill:#000000" text-anchor="middle">9</text>
	<text x="2722.99" y="2791.16" style="font-family:'Helvetica';font-size:99.99px;fill:#000000" text-anchor="middle">10</text>
	<text x="2925.95" y="2791.16" style="font-family:'Helvetica';font-size:99.99px;fill:#000000" text-anchor="middle">11</text>
	<text x="3128.77" y="2791.16" style="font-family:'Helvetica';font-size:99.99px;fill:#000000" text-anchor="middle">12</text>
	<text x="3331.72" y="2791.16" style="font-family:'Helvetica';font-size:99.99px;fill:#000000" text-anchor="middle">13</text>
	<text x="3534.55" y="2791.16" style="font-family:'Helvetica';font-size:99.99px;fill:#000000" text-anchor="middle">14</text>
	<text x="3737.50" y="2791.16" style="font-family:'Helvetica';font-size:99.99px;fill:#000000" text-anchor="middle">15</text>
	<text x="2317.22" y="172.79" style="font-family:'Helvetica';font-size:139.96px;fill:#1E2D53" text-anchor="middle">HCL diverging</text>
</svg>
