<?xml version="1.0" encoding="UTF-8"?>
<svg width="695.45" height="145.59" version="1.1" viewBox="0 0 695.45001 145.58749" xml:space="preserve" xmlns="http://www.w3.org/2000/svg" xmlns:cc="http://creativecommons.org/ns#" xmlns:dc="http://purl.org/dc/elements/1.1/" xmlns:rdf="http://www.w3.org/1999/02/22-rdf-syntax-ns#"><metadata><rdf:RDF><cc:Work rdf:about=""><dc:format>image/svg+xml</dc:format><dc:type rdf:resource="http://purl.org/dc/dcmitype/StillImage"/></cc:Work></rdf:RDF></metadata><defs><clipPath id="e"><path d="m2210.1 1058.1c0.13 12.85-109.52 115.6-309.71 106.02-544.62-43.38-674.87-1011.4-1359-1058.9 54.57 2.679 113.46 9.859 176.6 23.211 493.32 104.43 692.8 815.8 1062.2 939.29 218.75 68.93 320.69-25.7 320.69-25.7s-102.82-165.31-300.51-207.15c-167.76-32.207-226.44-14.844-226.44-14.844l0.93-8.082s102.65-37.738 291.9 2.328c204.05 43.192 348.29 225.95 343.42 243.83z"/></clipPath><linearGradient id="b" x2="1" gradientTransform="matrix(1693 1026.7 1026.7 -1693 482.63 152.72)" gradientUnits="userSpaceOnUse"><stop stop-color="#40b93c" offset="0"/><stop stop-color="#a6d71c" offset="1"/></linearGradient><clipPath id="d"><path d="m147.53 891.45s162.22 177.89 489.62 143.8c294.91-30.72 494.33-186.64 494.33-186.64s-134.59 10.649-272.96 1.067c-184.11-12.809-322.24-56.563-437.03-120.01-197.15 27.055-273.96 161.78-273.96 161.78zm1557.4 255.53c-454.78-96.63-553.77-713.89-1021.5-882.62-316.83-97.773-521.87 18.555-521.87 18.555s139.18 488.98 754.76 531.7c132.02 9.16 273.48 8.844 273.48 8.844l-0.29 7.379s-195.04 212.47-588.22 254.18c-397.22 42.16-568.48-193.04-568.48-193.04s99.105-178.7 320.57-204.14l-25.222-15.684c-269.18-192.3-328.14-468.96-328.14-468.96s175.68-100.15 462.87-85.902c716.7 60.324 809.56 1005.1 1332.1 1041.4-28.71-1.38-58.77-5.05-90.05-11.69z"/></clipPath><linearGradient id="a" x2="1" gradientTransform="matrix(2454.6 1006.3 1006.3 -2454.6 -235.05 318.7)" gradientUnits="userSpaceOnUse"><stop stop-color="#1d6434" offset="0"/><stop stop-color="#40b93c" offset=".41104"/><stop stop-color="#a6d71c" offset="1"/></linearGradient><clipPath id="c"><path d="m0 1164.7v-1164.7h5563.6v1164.7h-5563.6z"/></clipPath></defs><g transform="matrix(1.25 0 0 -1.25 0 145.59)"><g transform="scale(.1)"><g clip-path="url(#e)"><path d="m2210.1 1058.1c0.13 12.85-109.52 115.6-309.71 106.02-544.62-43.38-674.87-1011.4-1359-1058.9 54.57 2.679 113.46 9.859 176.6 23.211 493.32 104.43 692.8 815.8 1062.2 939.29 218.75 68.93 320.69-25.7 320.69-25.7s-102.82-165.31-300.51-207.15c-167.76-32.207-226.44-14.844-226.44-14.844l0.93-8.082s102.65-37.738 291.9 2.328c204.05 43.192 348.29 225.95 343.42 243.83" fill="url(#b)"/></g><g clip-path="url(#d)"><path d="m147.53 891.45s162.22 177.89 489.62 143.8c294.91-30.72 494.33-186.64 494.33-186.64s-134.59 10.649-272.96 1.067c-184.11-12.809-322.24-56.563-437.03-120.01-197.15 27.055-273.96 161.78-273.96 161.78zm1557.4 255.53c-454.78-96.63-553.77-713.89-1021.5-882.62-316.83-97.773-521.87 18.555-521.87 18.555s139.18 488.98 754.76 531.7c132.02 9.16 273.48 8.844 273.48 8.844l-0.29 7.379s-195.04 212.47-588.22 254.18c-397.22 42.16-568.48-193.04-568.48-193.04s99.105-178.7 320.57-204.14l-25.222-15.684c-269.18-192.3-328.14-468.96-328.14-468.96s175.68-100.15 462.87-85.902c716.7 60.324 809.56 1005.1 1332.1 1041.4-28.71-1.38-58.77-5.05-90.05-11.69" fill="url(#a)"/></g><g clip-path="url(#c)"><path d="m2481.3 0h45.91v428.12h-45.91v-428.12zm1498.9 235.59c-20.88 9.082-42 17.195-62.76 24.109-20.28 6.75-37.92 15-52.39 24.543-13.99 9.246-20.79 20.051-20.79 33.035 0 15.356 6.07 27.856 18.56 38.196 12.4 10.312 28.97 15.546 49.27 15.546 21.22 0 38-6.543 49.86-19.445 11.91-12.984 17.94-28.14 17.94-45.047v-2.578h73.07v9.192c0 28.691-12.05 56.582-35.83 82.91-23.87 26.394-59.21 39.773-105.04 39.773-41.84 0-76.41-11.504-102.71-34.18-26.44-22.785-39.84-52.839-39.84-89.343 0-24.289 7.61-45.063 22.6-61.758 14.81-16.496 33.24-29.262 54.79-37.922 21.22-8.547 42.56-16.504 63.47-23.66 20.59-7.016 38.32-16.074 52.71-26.945 13.89-10.442 20.94-23.399 20.94-38.52 0-16.98-6.99-30.672-21.36-41.84-14.4-11.191-33.1-16.871-55.59-16.871-26.68 0-47.09 7.3906-60.63 21.961-13.57 14.621-20.44 30.602-20.44 47.52v10.019h-71.39v-8.379c0-14.031 2.69-28.672 8-43.512 5.29-14.758 13.49-29.469 24.39-43.758 11.04-14.379 27.13-26.211 47.83-35.16 20.7-8.9492 45-13.48 72.24-13.48 41.22 0 76.89 11.891 106 35.371 29.21 23.617 44.02 52.707 44.02 86.469 0 28.058-7.57 51.996-22.5 71.144-14.81 19.028-33.12 33.364-54.42 42.61zm507.4-94.696c0-17.867-9.45-35.199-28.09-51.488-18.81-16.34-43.03-24.621-72.02-24.621-21.86 0-40.67 6.75-55.88 20.07-15.1 13.23-22.75 29.313-22.75 47.77 0 19 6.98 35.23 20.75 48.211 13.83 13.035 31.41 20.457 52.25 22.058l105.74 7.254v-69.254zm-78.6 294.93c-38.51 0-72.9-11.894-102.21-35.344-29.42-23.504-46.32-53.074-50.25-87.886l-0.32-2.871h70.51l0.33 2.183c2.67 17.453 11.52 31.645 26.29 42.199 14.98 10.684 33.7 16.106 55.65 16.106 23.98 0 43.29-7.539 57.36-22.387 14.09-14.93 21.24-33.008 21.24-53.726v-19.114l-111.11-7.297c-38.52-2.793-71.65-17.086-98.47-42.515-26.9-25.5-40.54-56.926-40.54-93.406 0-37.598 14.65-69.321 43.54-94.282 28.78-24.867 63.48-37.488 103.14-37.488 21.27 0 41.69 4.3984 60.69 13.09 19.28 8.7891 31.44 15.73 37.16 21.18 3.17 3 5.84 5.6407 8.07 7.9688v-33.949h69.75v290.79c0 39.192-13.2 72.133-39.25 97.902-26.09 25.782-63.63 38.848-111.58 38.848zm-988.86 0c-22.97 0-44.55-5.254-64.15-15.613-19.8-10.449-32.09-18.645-37.6-25.031-3-3.465-5.56-6.543-7.73-9.27l-1.49 41.606h-44v-419.23h45.75v292.45c0 25.617 10.57 48.098 31.41 66.828 20.95 18.789 46.58 28.321 76.16 28.321 28.94 0 52.55-9.219 70.17-27.395 17.67-18.179 26.62-43.765 26.62-76.043v-284.16h45.73v292.45c0 38.078-12.92 70.45-38.41 96.223-25.52 25.793-59.99 38.867-102.46 38.867zm2070.4-285c0-24.058-8.51-44.769-25.29-61.539-16.82-16.809-39.76-25.34-68.18-25.34-28.44 0-51.66 8.6797-69.02 25.781-17.34 17.058-26.13 37.898-26.13 61.942v133.32c0 23.996 8.78 44.68 26.12 61.484 17.34 16.836 40.57 25.383 69.03 25.383 28.41 0 51.35-8.535 68.18-25.351 16.78-16.77 25.29-37.461 25.29-61.516v-134.17zm26.32 239.54c-30.95 30.168-71.25 45.461-119.79 45.461-49.02 0-89.61-15.144-120.64-45.019-31.05-29.922-46.78-66.922-46.78-109.95v-125.05c0-43.59 15.6-80.848 46.36-110.75 30.73-29.91 71.46-45.059 121.06-45.059 48.54 0 88.83 15.148 119.78 45.051 31.02 29.879 46.75 66.859 46.75 109.9v125.91c0 42.493-15.72 79.336-46.74 109.51zm-3299-258.51c-1.07-27.289-11.34-49.5-30.55-66.007-19.32-16.641-43.27-25.082-71.21-25.082-29.02 0-53.66 9.1094-73.21 27.09-19.49 17.91-29.37 40.813-29.37 68.051v163.99c0 27.278 9.88 50.176 29.37 68.086 19.56 17.961 44.19 27.063 73.21 27.063 26.83 0 49.79-8.418 68.25-25.02 18.45-16.574 28.34-37.968 29.38-63.593l0.1-2.481h45.81l-0.17 2.735c-2.23 36.398-16.71 67.335-43.05 91.984-26.32 24.656-60.07 37.156-100.32 37.156-44.12 0-80.1-13.203-106.95-39.25-26.91-26.015-40.55-59.098-40.55-98.34v-160.67c0-39.769 13.64-72.992 40.55-98.742 26.89-25.77 62.87-38.828 106.95-38.828 41.35 0 75.81 12.629 102.41 37.559 26.59 24.922 41.21 56.57 43.45 94.05l0.16 2.731h-44.16l-0.1-2.481zm-538.01 97.954c-20.96 9.089-42.32 17.734-63.49 25.695-20.91 7.89-38.77 18.055-53.08 30.222-13.95 11.836-21.02 26.915-21.02 44.817 0 17.84 8.15 33.172 24.23 45.586 16.3 12.547 34.86 18.914 55.18 18.914 23.02 0 43.08-7.039 59.61-20.93 16.46-13.804 25.07-31.004 25.6-51.101l0.07-2.508h47.53l-0.22 2.793c-2.25 27.539-15.02 53.433-37.98 76.972-23.08 23.59-53.8 35.555-91.3 35.555-35.79 0-66.43-10.234-91.08-30.41-24.81-20.266-37.39-47.129-37.39-79.844 0-25.371 7.6-46.972 22.58-64.219 14.83-17.058 33.1-30.39 54.32-39.609 20.99-9.094 42.2-17.742 63.05-25.703 20.56-7.844 38.27-18.406 52.65-31.383 13.98-12.699 21.08-28.769 21.08-47.801 0-21.738-8.35-40.031-24.8-54.34-16.56-14.441-37.99-21.75-63.72-21.75-26.81 0-49.35 8.4219-67 25.012-17.6 16.508-26.81 37.078-27.34 61.098l-0.05 2.519h-45.68v-2.578c0-34.25 12.8-64.269 38.03-89.211 25.22-24.961 59.55-37.609 102.04-37.609 38 0 70.34 11.359 96.11 33.77 25.85 22.5 38.97 50.461 38.97 83.09 0 28.071-7.57 51.887-22.5 70.786-14.82 18.73-33.13 32.91-54.4 42.168zm3236.1 206.02c-21.25 0-42.12-4.973-62.02-14.765-20.08-9.915-32.87-17.649-39.13-23.633-4-3.797-7.35-7.117-10.1-10.039l-2.27 40.129h-64.66v-419.23h71.44v280.02c0 20.097 10.15 39.089 30.15 56.433 20.14 17.434 43.41 26.281 69.16 26.281 28.36 0 50.56-8.503 66.01-25.261 15.48-16.809 23.33-38.371 23.33-64.094v-273.38h71.38v270.92c0 45.215-13.74 83.008-40.83 112.32-27.15 29.391-64.99 44.305-112.46 44.305zm-2441.7 66.875h59.84v63.106h-59.84v-63.106zm335.61-205.3c0 28.372 9.77 51.985 29.03 70.207 19.28 18.211 43.75 27.442 72.75 27.442 29.02 0 53.65-9.102 73.21-27.063 19.51-17.898 29.4-41.367 29.4-69.746v-53.726h-204.39v52.886zm204.39-165.54c-1.06-27.281-11.06-49.5-29.75-66.031-18.77-16.629-43.28-25.059-72.86-25.059-29.54 0-54.15 9.1016-73.16 27.059-19 17.91-28.62 41.371-28.62 69.742v66.168h249.31v101.11c0 36.484-13.79 67.785-40.99 93.015-27.18 25.188-62.74 37.961-105.69 37.961-43.51 0-79.35-12.629-106.52-37.527-27.19-24.985-40.98-56.418-40.98-93.449v-173.89c0-37.031 13.79-68.461 40.98-93.422 27.15-24.91 62.99-37.539 106.52-37.539 41.88 0 76.59 12.488 103.18 37.141 26.64 24.621 41.27 56.398 43.5 94.48l0.16 2.719h-44.98l-0.1-2.481" fill="#4f4c4c"/></g></g></g></svg>
