<svg 
	version="1" 
	xmlns="http://www.w3.org/2000/svg"
	viewBox="-20 0 220 180"
	>

	<g 
		transform="translate(0.000000,200.000000) scale(0.100000,-0.100000)"
		>
		
		<path d="M1815 1988 c-11 -6 -29 -19 -41 -29 -17 -16 -25 -18 -52 -8 -53 18 -179 7 -237 -20 -39 -19 -174 -147 -637 -609 l-588 -586 -23 22 c-13 13 -40 25 -60 29 -32 5 -41 1 -72 -30 -38 -38 -44 -71 -21 -115 18 -32 532 -545 563 -561 36 -18 71 -12 105 18 42 37 46 96 8 136 l-24 25 586 588 c462 463 590 598 609 637 27 58 38 184 20 237 -10 27 -8 35 8 52 45 50 53 100 23 155 -31 59 -115 88 -167 59z"/>
		
	</g>
</svg>
