<svg
	version="1.1"
	xmlns="http://www.w3.org/2000/svg"
	viewBox="0 150 700 700"
	>

	<path
		d="m 721.14564,584.71589 0,9.61641 c -10.31264,11.50873 -24.95147,14.34129 -38.67389,7.43843 -8.24773,-4.21313 -15.89443,-9.36647 -23.05913,-15.28746 -1.41627,-1.1485 -2.75519,-2.32079 -3.77872,-3.70137 -2.51716,-3.13604 -1.55909,-5.31996 2.36245,-5.83173 3.624,-0.36894 7.08733,0.84501 10.47926,1.62456 l 17.38807,3.90368 c -5.03433,-10.43165 -9.6045,-20.32179 -17.38807,-28.31363 -11.97885,-12.15737 -24.42186,-23.9339 -35.51404,-36.83511 -3.6121,-4.29644 -7.71217,-7.17064 -12.67509,-9.47358 -19.68506,-8.61073 -40.07231,-15.78137 -58.34109,-27.39128 -1.33297,-0.90451 -2.92181,-1.70786 -4.48686,-1.14849 -5.98645,2.3803 -10.7887,0 -15.66236,-2.69569 -0.95212,-0.59507 -2.04705,-1.92804 -3.31456,-0.75574 -0.7855,0.8212 -0.0774,2.01135 0.0833,3.06463 1.96969,12.85956 4.00485,25.64176 5.97454,38.45966 0.87476,5.95669 2.36245,11.44328 6.53392,16.45976 7.09924,8.62857 13.46058,17.95339 15.98965,29.17649 0.3987,1.62456 1.17825,2.99918 2.4398,4.12982 24.16598,22.8092 40.53647,51.15854 55.90129,80.10891 11.03268,20.95257 19.75647,42.91677 31.41398,63.46468 2.053,3.45739 2.4398,7.48009 2.13036,11.34212 -0.8688,21.24416 -8.97372,40.7864 -18.97692,58.88856 -6.92666,12.42516 -18.4235,22.51762 -30.08101,31.49134 -8.34294,6.28993 -18.11406,9.12249 -28.4148,8.81305 -2.43385,-0.0833 -5.36162,0.0833 -6.53392,-2.68974 -1.17824,-2.64808 0.77955,-4.8677 2.3565,-6.67673 5.67106,-6.69459 11.65751,-12.98452 19.30421,-17.38212 5.26046,-3.08249 9.99725,-6.71839 12.74054,-12.53227 7.41463,-14.96017 15.75757,-29.36097 25.90954,-42.73229 1.80308,-2.46956 1.9697,-4.4214 -0.47606,-6.47441 -2.67783,-2.11846 -4.72489,-4.8082 -5.58774,-8.25963 -5.67106,-22.29149 -14.87091,-43.37497 -24.3326,-64.24423 -3.84418,-8.58693 -7.39677,-16.87036 -15.58499,-23.38047 -8.72975,-7.10519 -16.20983,-16.37645 -21.64881,-26.7724 -3.624,-6.86121 -8.34889,-13.08569 -12.8298,-19.84573 -2.27914,2.8385 -1.65431,5.42708 -1.88639,7.82523 -1.65431,20.50626 -0.64268,41.2208 -1.9816,61.84608 -2.83255,45.75527 -17.23335,86.70828 -46.53481,122.59722 -20.15517,24.57062 -43.05363,44.56512 -74.15817,53.99705 -10.94937,3.32647 -22.19628,4.8082 -33.46103,6.46846 l -41.5719,0 c -1.89234,-0.32729 -3.54664,-0.72004 -5.28426,-0.88666 -33.223,-3.77873 -61.72112,-17.156 -84.94687,-41.31602 -16.45381,-17.17384 -29.36097,-36.60897 -40.55432,-57.32351 -8.88446,-16.15032 -16.60257,-32.7529 -19.75647,-51.01573 -3.85013,-22.27363 -5.90909,-44.79125 -7.71216,-67.24935 -0.86881,-10.39595 -1.73167,-20.7919 -2.52312,-31.41398 -2.67188,1.15444 -3.30861,3.39192 -4.57017,5.01648 -9.43787,12.85955 -16.84655,27.51029 -29.36096,37.80507 -9.5331,7.83118 -15.50764,17.42378 -18.58418,29.07534 -4.25478,15.90038 -10.8601,30.77724 -19.06023,45.03523 -4.01675,6.94451 -7.79547,13.95449 -11.72296,20.95851 -1.26156,2.09467 -1.9697,4.07031 -0.79145,6.43276 7.48008,15.12084 14.48411,30.54517 25.74291,43.47018 2.19583,2.7552 4.4095,5.65321 5.27831,9.2058 1.10089,4.10602 3.61806,6.44466 7.70027,8.03351 9.37242,4.00485 17.81057,10.47926 26.14756,16.23363 2.12442,1.31511 2.90397,2.89801 0.55342,4.64158 -5.27831,3.92154 -10.78274,6.92666 -17.71536,4.79034 -10.95532,-3.31456 -21.33937,-7.95019 -31.24736,-13.48438 -3.55854,-2.0292 -6.15307,-4.86771 -8.27153,-8.17632 -11.74081,-18.71509 -21.821367,-38.33469 -30.069098,-58.80525 -3.945343,-9.69376 -3.945343,-18.67939 0,-28.43861 9.830629,-25.41562 21.482188,-49.90293 36.364998,-72.72999 3.2372,-4.72489 5.43303,-9.86038 6.30183,-15.75162 1.26156,-8.7952 5.58775,-15.90633 13.23446,-21.02397 5.82578,-3.86204 11.16954,-8.30129 15.26366,-13.97235 9.2177,-12.4073 19.29231,-24.17787 25.58819,-38.62628 1.34487,-2.93967 3.46333,-5.77222 5.74842,-8.18227 3.15389,-3.39193 4.96292,-7.29561 6.21853,-11.6099 4.95697,-18.54847 7.24205,-37.73962 12.05025,-56.29404 1.01758,-3.86203 -0.94616,-3.94534 -3.77872,-2.91586 -4.72489,1.85068 -9.44383,2.91586 -14.32939,0.26183 -1.571,-0.88071 -3.07058,-0.42845 -4.48686,0.72004 -10.55067,8.15847 -22.68423,13.84738 -33.91924,21.14299 -5.75437,3.67756 -11.97884,6.07571 -18.99477,5.85553 -2.11847,-0.0595 -4.16552,-0.0595 -5.51039,1.86854 -3.92154,6.74219 -10.62208,10.66373 -16.45381,15.53739 -14.960166,12.75839 -29.521636,25.74292 -41.250552,41.54214 -3.070584,4.10602 -5.671059,8.52742 -10.866058,11.28261 3.695412,3.22531 7.712164,3.6121 11.407576,4.17147 5.754369,0.75575 11.258807,1.1485 16.703737,1.85069 1.172297,0.12496 2.576672,0.28563 3.064633,1.70191 0.47606,1.69001 -0.624828,2.67188 -1.737617,3.49308 -1.725716,1.27941 -3.540692,2.41006 -5.349719,3.55855 -11.252856,6.59342 -23.68991,7.08734 -36.222177,6.40895 -7.075434,-0.30944 -14.317489,-0.53557 -20.071859,-5.95669 l 0,-9.5926 c 3.308614,-8.61073 8.348894,-16.17412 14.484111,-22.95202 14.811401,-16.28719 30.628478,-31.67581 46.546717,-46.98707 10.223378,-9.84253 23.933888,-16.20983 31.396128,-29.13485 0.48796,-0.88666 1.58289,-1.45793 2.52906,-1.93399 16.52522,-8.95587 32.27684,-19.41727 50.31949,-25.55844 2.90396,-1.04733 5.26641,-2.8147 7.6229,-4.76655 6.86121,-5.68891 14.56742,-9.36647 23.87439,-8.93802 4.40355,0.24399 8.89041,-0.0654 13.30586,0 2.75519,0.0833 4.7963,-0.8212 6.06381,-3.36812 5.42708,-11.85388 11.80032,-23.07103 19.35777,-33.69311 0.79145,-1.14849 1.80902,-2.29698 0.24398,-3.73706 -3.39193,-3.33242 -14.17467,-5.09979 -18.42351,-2.79685 -10.31263,5.54609 -20.54791,11.24095 -30.87245,16.92986 -4.62968,2.57072 -9.43788,5.55205 -14.7995,5.69486 -12.36565,0.51177 -22.99368,5.67106 -33.61575,10.96722 -9.44978,4.70704 -18.97097,8.96182 -29.37883,11.11599 -13.53199,2.83256 -26.59982,-5.54609 -29.670403,-19.16734 -0.946169,-4.00485 -1.029479,-8.30129 1.267508,-11.93719 10.705388,-16.99533 24.481355,-30.30714 44.231875,-36.53162 3.77873,-1.13064 4.32619,0.32729 3.94535,3.6121 -0.94022,6.08166 -3.07059,11.32427 -7.32537,15.69806 -2.83255,2.95752 -5.67106,5.93885 -7.71216,9.46764 -1.73167,3.00512 -0.86286,4.76654 2.67783,4.93316 4.32619,0.14282 8.41435,-0.63673 12.3597,-2.72544 2.99917,-1.52339 6.12926,-4.11196 9.13439,-4.05245 9.67591,0.16662 17.09053,-5.1593 25.5882,-8.15847 18.57822,-6.45061 36.60897,-14.7519 56.21072,-18.14382 2.05301,-0.3868 4.64158,-0.55342 6.06381,-1.85068 4.8082,-4.39165 10.46736,-3.69541 16.15032,-3.38598 3.53474,0.16663 6.84335,0.53557 10.62207,0.7617 2.27914,0.16067 4.09412,-0.7617 5.58775,-2.46361 6.30184,-7.29561 12.52037,-14.46626 18.89956,-21.76187 1.96375,-2.23748 1.56505,-3.6121 -1.09493,-4.64158 -4.42736,-1.77332 -7.33727,-5.16524 -8.59883,-9.59855 -1.41627,-4.59992 -4.15957,-6.21853 -8.72974,-5.56394 -2.27913,0.32729 -4.64158,0.16662 -6.93857,0.4106 -12.19902,1.11279 -24.48136,2.32674 -36.19837,-2.91587 -1.26156,-0.47606 -2.7671,-0.64268 -4.18337,-0.64268 -14.49601,0.16662 -28.73614,-2.33864 -43.14289,-3.6121 -15.98965,-1.45793 -21.18465,-5.83768 -24.79675,-20.15517 -3.1539,-12.4311 -5.92099,-24.92171 -6.38515,-37.82293 -0.3868,-10.872 0.70814,-21.75591 7.95614,-30.79509 12.12167,-15.00182 26.37965,-26.83785 45.82668,-31.21165 4.32619,-1.02353 8.90231,-2.46361 13.30586,-3.77872 l 9.6045,0 c 0.7855,5.07598 -3.15389,7.23015 -6.14116,9.92584 -10.54472,9.182 -22.28554,17.07268 -34.01445,24.75509 -5.34972,3.5526 -8.26559,6.94452 -5.97455,13.78787 1.26156,3.77873 0.62483,8.15252 0.62483,12.15737 0,9.28911 -1.49959,18.45326 -2.60048,27.55789 -0.31539,3.13605 0.70814,4.68324 3.70137,5.25451 13.23445,2.73734 25.82027,7.17065 38.72743,11.77652 1.82093,0.65458 3.77873,1.70192 5.5818,0.32729 9.6164,-7.21825 20.32179,-4.70703 30.95577,-3.98699 12.36565,0.845 23.77917,5.75436 35.66876,8.55121 4.95697,1.23181 9.28316,3.06464 13.06783,6.61723 6.61723,6.22448 9.68781,6.3911 17.24526,1.208 6.36729,-4.23098 8.81305,-4.16552 14.25203,1.39843 2.19582,2.21962 3.14794,1.76737 3.70136,-0.98783 0.94617,-5.40327 2.43386,-10.72324 3.30861,-16.10866 1.41628,-8.40245 1.5829,-17.00723 4.25479,-25.2252 8.68485,-29.83812 58.45102,-34.19288 70.61152,-15.38863 2.98728,5.30212 4.65348,10.95532 4.8201,16.82871 0.14282,13.72241 2.65999,26.86761 7.39678,39.56649 0.85096,2.36245 1.55909,4.68919 3.83823,1.1485 1.97565,-2.91587 3.87393,-2.44576 6.15307,-0.4106 3.07058,2.65403 6.21853,5.23665 9.37242,7.89068 4.48686,3.82038 5.42113,3.74302 8.65833,-1.11279 0.94617,-1.45793 1.72572,-3.05868 2.21368,-4.76654 2.19582,-8.61073 5.97454,-12.59773 14.56147,-12.92502 16.91796,-0.61888 34.63333,-2.13632 51.40847,2.77305 10.46736,2.98132 19.92309,2.48741 29.92629,-1.45793 9.05109,-3.55855 18.89362,-4.83201 27.71857,-9.36648 3.29671,-1.76737 4.23693,-3.70136 3.06463,-7.2361 -3.46333,-10.16982 -5.43898,-20.97637 -4.48091,-31.53894 1.25561,-9.26531 -2.52311,-14.69238 -9.05703,-19.56009 -5.98645,-4.54637 -11.72892,-9.30697 -17.79867,-14.07351 -2.20178,-1.9935 -4.71299,-3.92749 -6.99808,-6.20663 -2.0411,-2.01135 -4.09411,-4.41545 -2.67783,-7.48008 1.33891,-3.14199 4.48686,-3.30862 7.31941,-3.30862 7.48009,0.0595 14.4008,2.23748 20.94662,5.62941 14.87686,7.84903 26.06426,19.74457 34.94872,33.6098 5.43303,8.3846 6.92666,18.00099 5.74842,28.14701 -1.34487,10.16982 -4.48687,19.76837 -6.52797,29.69421 -2.37435,10.86606 -8.81305,16.59663 -19.14354,18.94122 -2.91587,0.74384 -5.82578,1.45793 -8.81305,2.0173 -12.7584,2.58858 -25.6001,4.49282 -37.87054,8.8071 -5.42708,1.83283 -10.62803,2.08276 -16.20982,1.00568 -9.92584,-1.76737 -20.00045,-3.2253 -29.92629,-4.832 -2.19583,-0.32729 -4.71299,-0.88071 -5.89719,1.29726 -2.60048,4.99267 -7.17065,8.37865 -10.32454,12.90121 -1.88639,2.79685 -2.3565,5.23666 -0.3749,8.30129 4.32619,6.69459 8.24773,13.70456 12.50846,20.48841 1.64836,2.62428 3.23126,6.0162 5.76032,7.39677 2.58858,1.54125 4.62968,-2.34459 7.14685,-3.39192 6.62913,-2.46361 13.15709,-1.6067 19.45893,0.4344 17.94149,5.71272 35.74612,11.66941 53.6162,17.64991 2.36245,0.8212 4.95102,1.85068 6.44466,3.6121 4.08816,4.68919 9.37242,6.94452 15.04348,8.54527 10.78274,3.2253 21.33341,6.92667 31.41397,11.83603 2.37435,1.2318 4.65348,1.69001 6.69459,-0.72004 2.11846,-2.58857 1.01758,-4.49281 -0.54152,-6.59343 -4.65348,-6.22447 -9.69971,-11.85388 -15.35887,-17.00722 -2.053,-1.76737 -5.58775,-3.84418 -4.02865,-6.67674 1.80903,-3.31456 5.58775,-1.21395 8.18822,-0.33324 13.85928,4.25478 22.68424,14.56742 29.77157,26.27849 8.49171,13.80572 7.00403,18.50681 -5.75437,28.59927 -6.4625,5.07599 -13.07378,6.3911 -20.86925,3.73707 -13.37728,-4.60588 -26.21303,-10.08651 -37.62656,-18.53062 -3.54664,-2.69568 -7.31941,-5.09383 -11.81222,-5.98049 -8.10492,-1.61861 -15.585,-4.98673 -22.82111,-8.70594 -7.56339,-4.05246 -15.04348,-8.05731 -22.60092,-12.00265 -1.1842,-0.67839 -2.83851,-2.27914 -3.86203,-0.90452 -3.36812,4.84986 -8.81305,4.84986 -13.61531,6.3911 -2.91586,0.84501 -3.46928,2.21963 -2.29103,5.13549 4.32619,9.5331 8.50956,19.08999 12.37159,28.86706 1.571,3.84418 3.77873,5.38543 7.9502,5.44493 12.59772,0.20828 24.71939,2.61238 35.51404,9.69972 1.88043,1.29131 4.09411,2.07681 6.29588,2.77304 17.1679,4.88556 32.97903,12.30614 46.83831,23.67206 25.82623,21.24416 50.7896,43.39282 75.74702,65.64266 2.52311,2.16012 6.0638,4.19527 3.54069,8.69403 -0.70814,1.23181 0.48201,2.36245 1.65431,3.06464 9.56879,7.49198 16.17412,17.2512 20.66693,28.55166"
		/>

</svg>
