<?xml version="1.0" encoding="UTF-8"?>
<!DOCTYPE svg  PUBLIC '-//W3C//DTD SVG 1.1//EN'  'http://www.w3.org/Graphics/SVG/1.1/DTD/svg11.dtd'>
<svg width="643.46px" height="203.69px" enable-background="new 0 0 643.464 203.687" version="1.1" viewBox="0 0 643.464 203.687" xml:space="preserve" xmlns="http://www.w3.org/2000/svg">
		<path d="m264.56 54.272c0.014-1.285-10.951-11.56-30.971-10.602-54.462 4.338-67.487 101.14-135.9 105.89 5.457-0.268 11.347-0.985 17.66-2.32 49.331-10.443 69.28-81.582 106.22-93.93 21.875-6.893 32.069 2.57 32.069 2.57s-10.282 16.531-30.051 20.715c-16.775 3.221-22.644 1.484-22.644 1.484l0.092 0.808s10.266 3.774 29.19-0.233c20.406-4.318 34.83-22.593 34.343-24.382z" fill="#fff"/>
	<path d="m214.05 45.38c-45.478 9.663-55.377 71.39-102.15 88.262-31.683 9.777-52.188-1.855-52.188-1.855s13.918-48.898 75.476-53.17c13.202-0.916 27.349-0.884 27.349-0.884l-0.029-0.738s-19.504-21.248-58.822-25.418c-39.723-4.217-56.849 19.303-56.849 19.303s9.911 17.87 32.058 20.415l-2.522 1.568c-26.917 19.229-32.814 46.897-32.814 46.897s17.568 10.016 46.287 8.59c71.67-6.032 80.956-100.51 133.21-104.14-2.872 0.137-5.878 0.505-9.006 1.168zm-155.74 25.554s16.222-17.789 48.963-14.38c29.49 3.072 49.433 18.664 49.433 18.664s-13.46-1.064-27.296-0.106c-18.411 1.281-32.224 5.656-43.703 12.001-19.715-2.707-27.397-16.179-27.397-16.179z" fill="#fff"/>
	<path d="m344.97 146.89c-0.106 2.729-1.106 4.95-2.975 6.604-1.877 1.663-4.328 2.506-7.286 2.506-2.954 0-5.415-0.91-7.316-2.706-1.899-1.791-2.862-4.137-2.862-6.974v-6.617h24.932v-10.111c0-3.648-1.379-6.778-4.1-9.302-2.718-2.519-6.273-3.796-10.568-3.796-4.352 0-7.936 1.263-10.652 3.753-2.719 2.498-4.098 5.642-4.098 9.345v17.389c0 3.703 1.379 6.847 4.098 9.343 2.715 2.491 6.299 3.754 10.652 3.754 4.188 0 7.659-1.249 10.317-3.714 2.664-2.462 4.127-5.641 4.351-9.448l0.016-0.272h-4.498l-0.011 0.246zm-20.439-16.554c0-2.837 0.978-5.198 2.903-7.021 1.928-1.821 4.375-2.744 7.275-2.744 2.901 0 5.364 0.91 7.32 2.706 1.951 1.79 2.94 4.137 2.94 6.975v5.373h-20.438v-5.289zm-33.561-20.531h5.984v-6.311h-5.984v6.311zm244.17 6.688c-2.125 0-4.212 0.497-6.202 1.477-2.008 0.991-3.287 1.765-3.913 2.363-0.399 0.38-0.734 0.712-1.01 1.004l-0.227-4.013h-6.467v41.923h7.145v-28.002c0-2.01 1.015-3.909 3.015-5.644 2.015-1.743 4.341-2.628 6.916-2.628 2.836 0 5.057 0.851 6.602 2.526 1.548 1.681 2.333 3.837 2.333 6.409v27.338h7.138v-27.092c0-4.521-1.374-8.301-4.083-11.231-2.716-2.939-6.5-4.43-11.247-4.43zm-323.6 20.602c-2.097-0.909-4.232-1.773-6.35-2.569-2.091-0.789-3.876-1.806-5.308-3.022-1.395-1.184-2.103-2.691-2.103-4.481 0-1.784 0.815-3.317 2.424-4.559 1.63-1.255 3.486-1.892 5.518-1.892 2.302 0 4.308 0.704 5.961 2.093 1.646 1.381 2.508 3.101 2.561 5.11l6e-3 0.251h4.754l-0.022-0.279c-0.225-2.754-1.502-5.344-3.798-7.697-2.308-2.359-5.38-3.556-9.13-3.556-3.579 0-6.644 1.023-9.107 3.041-2.481 2.026-3.739 4.713-3.739 7.984 0 2.537 0.76 4.697 2.258 6.422 1.482 1.706 3.31 3.039 5.432 3.961 2.099 0.909 4.22 1.774 6.306 2.57 2.056 0.784 3.827 1.841 5.265 3.139 1.398 1.27 2.107 2.877 2.107 4.779 0 2.175-0.834 4.003-2.479 5.435-1.655 1.443-3.799 2.175-6.372 2.175-2.681 0-4.935-0.842-6.699-2.501-1.761-1.651-2.682-3.708-2.734-6.11l-6e-3 -0.252h-4.567v0.258c0 3.426 1.279 6.428 3.803 8.922 2.521 2.495 5.955 3.761 10.204 3.761 3.801 0 7.034-1.136 9.61-3.377 2.586-2.25 3.897-5.046 3.897-8.31 0-2.807-0.757-5.188-2.249-7.078-1.486-1.875-3.316-3.293-5.443-4.218zm53.801 9.795c-0.106 2.729-1.135 4.95-3.056 6.602-1.932 1.664-4.327 2.508-7.12 2.508-2.902 0-5.366-0.911-7.321-2.709-1.949-1.791-2.938-4.081-2.938-6.805v-16.399c0-2.728 0.988-5.018 2.938-6.809 1.956-1.796 4.419-2.706 7.321-2.706 2.683 0 4.979 0.842 6.824 2.502 1.846 1.657 2.835 3.797 2.938 6.359l0.011 0.248h4.58l-0.017-0.273c-0.224-3.64-1.672-6.733-4.306-9.198-2.631-2.466-6.007-3.716-10.031-3.716-4.412 0-8.011 1.32-10.695 3.925-2.691 2.602-4.056 5.91-4.056 9.834v16.067c0 3.977 1.364 7.299 4.056 9.874 2.688 2.576 6.287 3.883 10.695 3.883 4.135 0 7.581-1.264 10.241-3.756 2.659-2.492 4.12-5.657 4.344-9.405l0.017-0.273h-4.416l-9e-3 0.247zm329.9-25.851c-3.095-3.017-7.125-4.546-11.979-4.546-4.902 0-8.961 1.515-12.064 4.502-3.104 2.992-4.678 6.692-4.678 10.995v12.505c0 4.358 1.56 8.085 4.636 11.075 3.073 2.99 7.146 4.506 12.106 4.506 4.854 0 8.883-1.516 11.978-4.505 3.103-2.988 4.676-6.687 4.676-10.99v-12.591c0-4.249-1.573-7.933-4.675-10.951zm-2.632 23.954c0 2.406-0.851 4.477-2.529 6.153-1.682 1.682-3.976 2.534-6.817 2.534-2.844 0-5.166-0.867-6.902-2.578-1.733-1.706-2.613-3.79-2.613-6.193v-13.333c0-2.399 0.879-4.468 2.612-6.148 1.734-1.684 4.058-2.538 6.903-2.538 2.841 0 5.135 0.854 6.817 2.535 1.679 1.677 2.529 3.746 2.529 6.151v13.417zm-207.04-28.5c-2.297 0-4.455 0.525-6.415 1.562-1.979 1.045-3.209 1.864-3.76 2.503-0.3 0.347-0.556 0.654-0.773 0.927l-0.148-4.16h-4.4v41.923h4.575v-29.245c0-2.562 1.057-4.81 3.141-6.683 2.096-1.879 4.658-2.832 7.616-2.832 2.895 0 5.255 0.922 7.018 2.739 1.767 1.818 2.662 4.377 2.662 7.604v28.416h4.572v-29.245c0-3.808-1.292-7.045-3.841-9.622-2.553-2.579-6-3.887-10.247-3.887zm98.886 0c-3.851 0-7.289 1.189-10.221 3.534-2.941 2.351-4.632 5.308-5.024 8.789l-0.032 0.287h7.051l0.033-0.219c0.267-1.745 1.151-3.164 2.629-4.22 1.498-1.068 3.37-1.61 5.564-1.61 2.398 0 4.329 0.754 5.736 2.238 1.409 1.493 2.124 3.301 2.124 5.373v1.911l-11.111 0.729c-3.852 0.279-7.164 1.709-9.847 4.252-2.689 2.55-4.054 5.692-4.054 9.341 0 3.76 1.465 6.932 4.354 9.428 2.878 2.487 6.349 3.749 10.314 3.749 2.127 0 4.169-0.44 6.069-1.31 1.928-0.879 3.144-1.572 3.716-2.117 0.316-0.301 0.584-0.564 0.807-0.798v3.396h6.976v-29.079c0-3.919-1.32-7.213-3.926-9.79-2.608-2.577-6.362-3.884-11.158-3.884zm7.86 29.493c0 1.787-0.945 3.52-2.809 5.148-1.881 1.634-4.304 2.462-7.202 2.462-2.187 0-4.067-0.675-5.588-2.007-1.51-1.323-2.275-2.931-2.275-4.776 0-1.9 0.698-3.523 2.075-4.821 1.383-1.304 3.141-2.046 5.225-2.206l10.574-0.726v6.926zm-50.74-9.469c-2.088-0.908-4.199-1.72-6.275-2.411-2.028-0.675-3.792-1.5-5.239-2.454-1.399-0.925-2.079-2.005-2.079-3.304 0-1.535 0.607-2.785 1.856-3.819 1.239-1.031 2.896-1.555 4.927-1.555 2.122 0 3.8 0.654 4.986 1.944 1.19 1.299 1.794 2.814 1.794 4.505v0.258h7.307v-0.919c0-2.869-1.205-5.658-3.583-8.291-2.387-2.64-5.921-3.978-10.504-3.978-4.185 0-7.641 1.15-10.271 3.418-2.644 2.278-3.983 5.284-3.983 8.935 0 2.429 0.761 4.506 2.26 6.176 1.481 1.649 3.324 2.926 5.479 3.792 2.121 0.854 4.256 1.65 6.347 2.366 2.059 0.701 3.832 1.607 5.271 2.694 1.39 1.044 2.095 2.34 2.095 3.852 0 1.698-0.699 3.067-2.137 4.185-1.439 1.119-3.31 1.687-5.559 1.687-2.668 0-4.709-0.738-6.063-2.195-1.356-1.462-2.044-3.061-2.044-4.752v-1.002h-7.139v0.838c0 1.402 0.269 2.866 0.8 4.351 0.529 1.476 1.35 2.947 2.439 4.376 1.104 1.438 2.713 2.621 4.783 3.516 2.069 0.896 4.5 1.349 7.224 1.349 4.122 0 7.688-1.189 10.6-3.537 2.921-2.362 4.402-5.271 4.402-8.647 0-2.806-0.757-5.199-2.25-7.114-1.483-1.906-3.314-3.34-5.444-4.264zm-149.89 23.559h4.591v-42.813h-4.591v42.813z" fill="#fff"/>
</svg>
